<svg xmlns="http://www.w3.org/2000/svg" viewBox="0 0 48 48">
    <defs>
        <style>.cls-1{fill:#425b72}.cls-3{fill:#6fabe6}.cls-4{fill:#82bcf4}</style>
    </defs>
    <g id="Blockchain_money" data-name="Blockchain money">
        <path class="cls-1" d="M28.35 42.57a1 1 0 0 1-.48-1.87l9.65-5.35a1 1 0 0 1 1 1.75c-10.39 5.74-9.79 5.47-10.17 5.47zM20 42.77c-.38 0 .34.33-10.83-5.86a1 1 0 0 1 1-1.75l10.35 5.73a1 1 0 0 1-.52 1.88zM11 12.2a1 1 0 0 1-.49-1.87l7.58-4.2a1 1 0 0 1 1 1.75c-8.21 4.55-7.68 4.32-8.09 4.32zM38 12.77c-.37 0 .42.38-10.13-5.47a1 1 0 0 1 1-1.75l9.65 5.35a1 1 0 0 1-.52 1.87zM41 29V19a1 1 0 0 1 2 0v10a1 1 0 0 1-2 0zM5 29V19a1 1 0 0 1 2 0v10a1 1 0 0 1-2 0z"/>
        <path d="M24 23a1 1 0 1 1 1-1 1 1 0 0 0 1 1c1.66 0 1.21-3-1-3.82a1 1 0 1 0-2 0A3 3 0 0 0 24 25a1 1 0 1 1-1 1 1 1 0 0 0-1-1c-1.66 0-1.21 3 1 3.82a1 1 0 1 0 2 0A3 3 0 0 0 24 23z" style="fill:#f8834b"/>
        <path class="cls-3" d="m30 3.4-6 2.4-6-2.4L24 1l6 2.4z"/>
        <path class="cls-3" d="M24 5.8V13l-6-2.4V3.4l6 2.4zM30 3.4v7.2L24 13V5.8l6-2.4zM13 11.4l-6 2.4-6-2.4L7 9zM7 13.8V21l-6-2.4v-7.2z"/>
        <path class="cls-3" d="M13 11.4v7.2L7 21v-7.2l6-2.4z"/>
        <path class="cls-4" d="M27.5 2.4 24 3.8l-3.5-1.4L24 1l3.5 1.4zM23 5.4v4.2l-5-2V3.4l5 2zM30 3.4v4.2l-5 2V5.4l5-2z"/>
        <path class="cls-3" d="m13 29.4-6 2.4-6-2.4L7 27l6 2.4zM7 31.8V39l-6-2.4v-7.2l6 2.4zM13 29.4v7.2L7 39v-7.2l6-2.4zM47 11.4l-6 2.4-6-2.4L41 9l6 2.4zM41 13.8V21l-6-2.4v-7.2l6 2.4z"/>
        <path class="cls-3" d="M47 11.4v7.2L41 21v-7.2l6-2.4zM47 29.4l-6 2.4-6-2.4 6-2.4 6 2.4zM41 31.8V39l-6-2.4v-7.2l6 2.4zM47 29.4v7.2L41 39v-7.2l6-2.4zM30 37.4l-6 2.4-6-2.4 6-2.4 6 2.4z"/>
        <path class="cls-3" d="M24 39.8V47l-6-2.4v-7.2l6 2.4zM30 37.4v7.2L24 47v-7.2l6-2.4z"/>
        <path class="cls-4" d="M44.5 10.4 41 11.8l-3.5-1.4L41 9l3.5 1.4zM40 13.4v4.2l-5-2v-4.2l5 2zM47 11.4v4.2l-5 2v-4.2l5-2zM44.5 28.4 41 29.8l-3.5-1.4L41 27l3.5 1.4zM40 31.4v4.2l-5-2v-4.2l5 2zM47 29.4v4.2l-5 2v-4.2l5-2zM27.5 36.4 24 37.8l-3.5-1.4L24 35l3.5 1.4zM23 39.4v4.2l-5-2v-4.2l5 2zM30 37.4v4.2l-5 2v-4.2l5-2zM10.5 28.4 7 29.8l-3.5-1.4L7 27l3.5 1.4zM6 31.4v4.2l-5-2v-4.2l5 2zM13 29.4v4.2l-5 2v-4.2l5-2zM10.5 10.4 7 11.8l-3.5-1.4L7 9l3.5 1.4zM6 13.4v4.2l-5-2v-4.2l5 2zM13 11.4v4.2l-5 2v-4.2l5-2z"/>
    </g>
</svg>