<svg xmlns="http://www.w3.org/2000/svg" width="512" height="512" xml:space="preserve">
    <circle fill="#FF6650" cx="358.051" cy="266.549" r="68.234"/>
    <path fill="#4E709C" d="m289.503 215.354-28.437 17.865-6.797-15.88-25.309 3.97c0 28.001-31.936 41.33-56.058 73.163-40.204 53.055-93.809 99.443-93.809 99.443h358.292s-61.835-53.621-102.49-111.42c-19.91-28.307-45.392-42.671-45.392-67.141z"/>
    <path fill="#CED8DB" d="m262.779 320.702 8.288-59.34c1.133-8.11 5.161-8.807 8.953-1.549l3.582 6.857c3.791 7.258 6.335 7.389 5.653.293-.682-7.096 2.853-7.599 7.856-1.118l47.311 61.289c5.003 6.482 6.399 5.653 3.101-1.842l-15.302-34.778c-2.533-5.757-1.267-8.513 2.675-7.753-19.909-28.306-34.74-57.848-34.74-81.848h-83.833c0 27-19.341 62.069-43.501 93.932l17.894-13.425c6.569-4.887 10.57-2.386 8.891 5.629l-4.812 22.936c-1.679 8.014.404 8.818 4.628 1.804l35.751-59.36c4.225-7.014 8.91-6.17 10.411 1.879l12.405 66.505c1.501 8.049 3.657 7.999 4.789-.111z"/>
    <path fill="#2FB49F" d="M162.949 376.119c-5.951-10.091-23.619-33.394-40.581-33.394s-34.592 23.303-40.544 33.394c-5.951 10.091-42.042 34.498-42.042 34.498l82.586-8.673 74.02-6.506s-27.488-9.228-33.439-19.319zM376.674 371.581c-5.153-8.738-20.453-28.917-35.14-28.917s-29.954 20.178-35.108 28.917c-5.153 8.738-28.923 16.729-28.923 16.729l64.031 5.634 64.096-5.634s-23.803-7.99-28.956-16.729z"/>
    <path fill="#2FB49F" d="M266 375.374v-.278s-3.289.023-8.499.115a883.56 883.56 0 0 0-8.501-.115v.278c-55 1.251-203.128 7.887-237.716 41.54h489.431C466.127 383.261 322 376.625 266 375.374z"/>
</svg>