<svg xmlns="http://www.w3.org/2000/svg" viewBox="0 0 48 48">
    <defs>
        <style>.cls-3{fill:#f6fafd}.cls-4{fill:#273941}</style>
    </defs>
    <g id="_06-haha" data-name="06-haha">
        <circle cx="24" cy="24" r="23" style="fill:#ffce52"/>
        <path d="M36.99 27.2c.63-.06 1.3-.13 2.01-.2a10.71 10.71 0 0 1-4.94 8.89 17.826 17.826 0 0 1-20.12 0A10.71 10.71 0 0 1 9 27c.59.13 1.27.25 2.02.35C11.35 31.06 17.03 34 24 34c7.07 0 12.8-3.02 12.99-6.8z" style="fill:#ae2d4c"/>
        <path class="cls-3" d="M36.99 27.2C36.8 30.98 31.07 34 24 34c-6.97 0-12.65-2.94-12.98-6.65A113.09 113.09 0 0 0 24 28a119.54 119.54 0 0 0 12.99-.8z"/>
        <path class="cls-4" d="M37 21h-2c0-1.569-1.142-5-2-5s-2 3.431-2 5h-2c0-.832.845-7 4-7s4 6.168 4 7zM19 21h-2c0-1.569-1.142-5-2-5s-2 3.431-2 5h-2c0-.832.845-7 4-7s4 6.168 4 7z"/>
        <path d="M24 4c12.15 0 22 8.507 22 19h.975a23 23 0 0 0-45.95 0H2C2 12.507 11.85 4 24 4z" style="fill:#ffe369"/>
        <path d="M46 23c0 10.493-9.85 19-22 19S2 33.493 2 23h-.975c-.014.332-.025.665-.025 1a23 23 0 0 0 46 0c0-.335-.011-.668-.025-1z" style="fill:#ffb32b"/>
        <ellipse class="cls-3" cx="37" cy="9" rx=".825" ry="1.148" transform="rotate(-45.02 37 9)"/>
        <ellipse class="cls-3" cx="30.746" cy="4.5" rx=".413" ry=".574" transform="rotate(-45.02 30.745 4.5)"/>
        <ellipse class="cls-3" cx="34" cy="7" rx="1.65" ry="2.297" transform="rotate(-45.02 34 7)"/>
        <path d="M36.3 29.266a4.247 4.247 0 0 0 .69-2.066A119.54 119.54 0 0 1 24 28a113.09 113.09 0 0 1-12.98-.65 4.377 4.377 0 0 0 .806 2.1A121.226 121.226 0 0 0 24 30a115.21 115.21 0 0 0 12.3-.734z" style="fill:#ededed"/>
        <path d="M24 36c7.57 0 13.709-3.944 13.993-8.9l-1 .1C36.8 30.98 31.07 34 24 34c-6.969 0-12.648-2.939-12.98-6.648a39.11 39.11 0 0 1-1.02-.154C10.356 32.109 16.48 36 24 36z" style="fill:#8a293d"/>
    </g>
</svg>