<svg xmlns="http://www.w3.org/2000/svg" viewBox="0 0 48 48">
    <defs>
        <style>.cls-1{fill:#7c7d7d}.cls-2{fill:#919191}.cls-5{fill:#fc6}.cls-6{fill:#ffde76}</style>
    </defs>
    <g id="Money_and_Hourglass" data-name="Money and Hourglass">
        <path class="cls-1" d="M35 1v2a2 2 0 0 1-2 2H7a2 2 0 0 1-2-2V1z"/>
        <path class="cls-2" d="M35 1v2H10a2 2 0 0 1-2-2z"/>
        <path class="cls-1" d="M35 45v2H5v-2a2 2 0 0 1 2-2h26a2 2 0 0 1 2 2z"/>
        <path class="cls-2" d="M35 45H10a2 2 0 0 1-2-2c0-.1-1.26 0 25 0a2 2 0 0 1 2 2z"/>
        <path d="M32 43H8l.46-7A15 15 0 0 1 16 24a15 15 0 0 1-7.54-12L8 5h24l-.46 7A15 15 0 0 1 24 24a15 15 0 0 1 7.54 12c.4 6 .3 4.48.46 7z" style="fill:#dad7e5"/>
        <path d="m31.54 36 .33 5H14.34a3 3 0 0 1-3-3.2l.12-1.8A15 15 0 0 1 19 24a15 15 0 0 1-7.54-12L11 5h21l-.46 7A15 15 0 0 1 24 24a15 15 0 0 1 7.54 12z" style="fill:#edebf2"/>
        <path class="cls-5" d="M27.54 43H12.46a11 11 0 0 1 4.29-8c1.54-1.23 3.16-2 4.74-1.13 3.89 2.19 5.83 5.43 6.05 9.13z"/>
        <path class="cls-6" d="M27.23 41H20a3 3 0 0 1-2.39-4.82 11.54 11.54 0 0 1 2.84-2.68c1.86.25 5.66 3.15 6.78 7.5z"/>
        <path class="cls-5" d="M26.94 13.94a10.94 10.94 0 0 1-4.38 5.56c-1.32.88-2.57 1.48-4 .64A11.11 11.11 0 0 1 12.78 13c2 .18 2.15 1 4.55 1 2.67 0 2.67-1 5.34-1 2.25 0 2.6.72 4.27.94z"/>
        <path class="cls-6" d="M26.94 13.94a10.94 10.94 0 0 1-4.38 5.56c-1.37-.19-4.56-2.25-6.08-5.5 3 .36 3.39-1 6.19-1 2.25 0 2.6.72 4.27.94zM19.29 28.29a1 1 0 0 1 1.42 1.42 1 1 0 0 1-1.42-1.42zM19.08 24.62a1 1 0 0 1 1.84.76 1 1 0 0 1-1.84-.76z"/>
        <path class="cls-5" d="M43 38a9 9 0 1 1-14.28-7.28A9 9 0 0 1 43 38z"/>
        <path class="cls-6" d="M41.67 42.69c-8 4.86-17.26-4.33-12.36-12.36 8.03-4.92 17.26 4.36 12.36 12.36z"/>
        <path d="M34 37a1 1 0 1 1 1-1 1 1 0 0 0 1 1c1.66 0 1.21-3-1-3.82a1 1 0 1 0-2 0A3 3 0 0 0 34 39a1 1 0 1 1-1 1 1 1 0 0 0-1-1c-1.66 0-1.21 3 1 3.82a1 1 0 1 0 2 0A3 3 0 0 0 34 37z" style="fill:#f8834b"/>
    </g>
</svg>