<svg xmlns="http://www.w3.org/2000/svg" width="512" height="512" xml:space="preserve">
    <g>
        <circle fill="#FF6650" cx="256" cy="25.015" r="12"/>
        <path fill="#2D415A" d="M417.645 491.561c-4.042-1.451-99.678-35.546-160.76-35.546-61.053 0-158.374 34.08-162.487 35.53-2.343.827-3.435 2.432-2.674 3.934.761 1.501 3.189 2.536 5.952 2.536h316.649c2.754 0 5.176-1.028 5.944-2.522.77-1.496-.301-3.097-2.624-3.932z"/>
        <path fill="#2FB49F" d="M304.266 91.162c0 26.657-21.609 28.266-48.266 28.266s-48.266-1.609-48.266-28.266S229.343 42.896 256 42.896s48.266 21.61 48.266 48.266z"/>
        <path fill="#E3E3E3" d="M200.679 419.659h110.642l-1.708-31.087H202.387z"/>
        <path fill="#A6A6A6" d="M309.967 395.015H202.033l-1.354 25h110.642z"/>
        <path fill="#E3E3E3" d="M204.275 354.213h103.45l-1.753-31.904h-99.944zM207.916 287.95h96.168l-1.708-31.087h-92.752zM213.265 190.6l-1.753 31.905h88.976l-1.753-31.905z"/>
        <path fill="#FF6650" d="M296.848 156.015h-81.696l-1.887 35h85.47zM209.624 257.015h92.752l-1.888-34h-88.976zM206.028 322.015h99.944l-1.888-34h-96.168zM202.387 389.015h107.226l-1.888-35h-103.45zM166.068 472.015h179.864l-3.888-64H169.956z"/>
        <path fill="#CF5341" d="M214.163 174.239h83.674l-.899-16.362h-81.876z"/>
        <path fill="#FFD161" d="M206.949 87.89h98.102v68.351h-98.102z"/>
        <path fill="#FFF" d="M219.93 89.526h72.14v66.715h-72.14z"/>
        <path fill="#FF6650" d="M311.393 166.058H200.607a8.181 8.181 0 0 1 0-16.362h110.786a8.181 8.181 0 0 1 0 16.362zM311.393 96.071H200.607a8.181 8.181 0 0 1 0-16.362h110.786a8.181 8.181 0 0 1 0 16.362z"/>
        <path fill="#FFD161" d="m0 203.015 195.819-60v-41L0 52.015zM512 203.015l-195.819-60v-41l195.819-50z"/>
        <path fill="#4A4A4A" d="M240.991 257.015v-8.634c0-8.191 6.64-14.832 14.832-14.832h.354c8.191 0 14.832 6.64 14.832 14.832v8.634M238.886 322.015v-9.845c0-9.34 7.572-16.912 16.912-16.912h.403c9.34 0 16.912 7.572 16.912 16.912v9.845M235.943 389.015v-11.539c0-10.946 8.874-19.82 19.82-19.82h.473c10.946 0 19.82 8.874 19.82 19.82v11.539M227 472.015v-16.684c0-15.827 12.831-28.658 28.658-28.658h.684c15.827 0 28.658 12.831 28.658 28.658v16.684"/>
        <path fill="#E3E3E3" d="M267.592 44.896h-23.184a5.941 5.941 0 0 1 0-11.882h23.184a5.94 5.94 0 1 1 0 11.882z"/>
    </g>
</svg>