<svg xmlns="http://www.w3.org/2000/svg" viewBox="0 0 48 48">
    <defs>
        <style>.cls-1{fill:#a87e6b}.cls-2{fill:#be927c}.cls-3{fill:#ffde76}.cls-4{fill:#fc6}</style>
    </defs>
    <g id="Budget">
        <path class="cls-1" d="M37 38c0 7.82-9.19 9-17 9-9.39 0-17-1.82-17-9 0-5.67 4.74-17.33 11.35-22h11.3C32.26 20.67 37 32.33 37 38z"/>
        <path class="cls-2" d="M37 38a7 7 0 0 1-2.69 5.82A36.64 36.64 0 0 1 24 45c-9.39 0-17-1.82-17-9 0-5 3.66-14.58 9-20h9.63C32.26 20.67 37 32.33 37 38z"/>
        <path class="cls-1" d="M28.78 5.94C26 10.38 27.11 8.63 25 12H15l-3.8-6.06a3 3 0 0 1 2.39-4.53C15 1.32 15 2 16.49 2c1.75 0 1.75-1 3.5-1s1.76 1 3.51 1a3 3 0 0 0 1.36-.29 3 3 0 0 1 3.92 4.23z"/>
        <path class="cls-2" d="M28.78 5.94 26.87 9c-11.25 0-9.56.92-12.67-4.06a2.88 2.88 0 0 1 .31-3.45c.66.12.82.51 2 .51 1.75 0 1.75-1 3.5-1s1.76 1 3.51 1a2.92 2.92 0 0 0 1.39-.31 3 3 0 0 1 3.87 4.25z"/>
        <path class="cls-3" d="M35 21c-.3 0-.38-.07-1.27-.52-2.55-1.27-1.6-3.48-3.73-3.86l-2.55-.51a1 1 0 0 1 .4-2c2.53.51 4.79.62 5.68 3.28.33 1 1.06 1.25 1.92 1.68A1 1 0 0 1 35 21zM35 14a5.49 5.49 0 0 1-3.49-.78 2.69 2.69 0 0 0-3 0l-.46.3a1 1 0 0 1-1.1-1.66l.45-.3a4.66 4.66 0 0 1 5.23 0A3.77 3.77 0 0 0 35 12a1 1 0 0 1 0 2z"/>
        <path class="cls-4" d="M28 14a2 2 0 0 1-2 2H14a2 2 0 0 1 0-4h12a2 2 0 0 1 2 2z"/>
        <path class="cls-3" d="M28 14H17a2 2 0 0 1-2-2h11a2 2 0 0 1 2 2zM20 30a2 2 0 1 1 2-2 1 1 0 0 0 1 1c1.89 0 1.06-4.06-2-4.86V23a1 1 0 0 0-2 0v1.14A4 4 0 0 0 20 32a2 2 0 1 1-2 2 1 1 0 0 0-1-1c-1.89 0-1.06 4.06 2 4.86V39a1 1 0 0 0 2 0v-1.14A4 4 0 0 0 20 30z"/>
        <path class="cls-4" d="M45 38a9 9 0 1 1-14.28-7.28A9 9 0 0 1 45 38z"/>
        <path class="cls-3" d="M43.67 42.69c-8 4.86-17.26-4.33-12.36-12.36 8.03-4.92 17.26 4.36 12.36 12.36z"/>
        <path d="M36 37a1 1 0 1 1 1-1 1 1 0 0 0 1 1c1.66 0 1.21-3-1-3.82a1 1 0 1 0-2 0A3 3 0 0 0 36 39a1 1 0 1 1-1 1 1 1 0 0 0-1-1c-1.66 0-1.21 3 1 3.82a1 1 0 1 0 2 0A3 3 0 0 0 36 37z" style="fill:#f8834b"/>
    </g>
</svg>