<svg xmlns="http://www.w3.org/2000/svg" viewBox="0 0 512.001 512.001" style="enable-background:new 0 0 512.001 512.001" xml:space="preserve">
    <path style="fill:#f9bbd0" d="M271.671 142.99c-26.826 0-52.419 4.242-75.813 11.931-73.046-67.923-83.646-26.85-67.673 36.654l.003-.002c-17.977 14.782-32.466 32.326-42.39 51.773-3.938 7.715-11.783 12.672-20.445 12.618l-.461-.003c-11.025-.098-20.587 7.637-22.631 18.47a163.798 163.798 0 0 0-2.83 30.417c0 9.442.798 18.775 2.388 27.97 2.84 16.43 14.668 29.932 30.632 34.74l.63.188c9.636 2.852 18.05 8.807 23.846 17.017 9.093 12.879 20.335 24.639 33.301 34.999l-.02.009s5.103 27.259-13.005 57.903 80.423 47.638 86.72-20.406l-.002-.009c21.169 6.108 43.974 9.448 67.749 9.448 17.991 0 35.424-1.916 52.017-5.49a100.437 100.437 0 0 1-7.823 16.458c-18.108 30.644 80.423 47.638 86.72-20.406a526.317 526.317 0 0 0 1.886-30.979c41.753-29.659 68.101-73.069 68.101-121.441 0-89.392-89.946-161.859-200.9-161.859z"/>
    <g style="opacity:.1">
        <path d="M271.671 142.99c-5.05 0-10.056.151-15.012.447 103.969 6.164 185.946 76.073 185.946 161.411 0 48.373-26.348 91.781-68.101 121.441a526.419 526.419 0 0 1-1.886 30.979c-2.526 27.294-19.894 40.896-38.619 45.432 25.018 6.323 64.667-3.08 68.586-45.432a526.317 526.317 0 0 0 1.886-30.979c41.753-29.659 68.101-73.069 68.101-121.441-.001-89.391-89.947-161.858-200.901-161.858zM293.719 461.216c-11.961 2.576-24.365 4.275-37.094 5.032 4.968.298 9.983.458 15.044.458 6.814 0 13.548-.278 20.188-.813a97.473 97.473 0 0 0 1.862-4.677z"/>
    </g>
    <circle style="fill:#fea001" cx="271.641" cy="63.921" r="56.408"/>
    <circle style="fill:#ffd54f" cx="271.641" cy="63.921" r="26.44"/>
    <path d="M408.398 195.717c36.552 29.182 56.682 67.932 56.682 109.112 0 21.51-5.467 42.346-16.25 61.929a7.493 7.493 0 0 0 13.126 7.228c12.015-21.822 18.107-45.089 18.107-69.156 0-45.831-22.131-88.739-62.316-120.822a7.492 7.492 0 0 0-9.349 11.709zM70.288 374.711l.666.2c8.035 2.377 15.086 7.405 19.851 14.154 8.87 12.562 19.742 24.184 32.347 34.584.633 6.967 1.023 27.478-12.4 50.195-4.714 7.977-4.29 16.578 1.163 23.594 10.2 13.126 35.763 18.275 58.187 11.724 21.069-6.153 35.263-21.421 39.931-42.515 19.91 5 40.602 7.532 61.638 7.532 13.206 0 26.359-1.01 39.266-3.009-.492.899-1 1.79-1.521 2.674-4.714 7.977-4.29 16.578 1.163 23.594 7.204 9.271 22.072 14.563 38.086 14.563 6.658 0 13.515-.915 20.101-2.838 23.868-6.971 38.913-25.641 41.283-51.244a541.343 541.343 0 0 0 1.786-27.731c12.05-8.902 22.807-18.945 32.014-29.895a7.49 7.49 0 1 0-11.467-9.642c-9.153 10.885-20.002 20.815-32.246 29.513a7.49 7.49 0 0 0-3.149 5.88 521.758 521.758 0 0 1-1.857 30.517c-2.303 24.885-17.891 34.52-30.562 38.221-17.293 5.051-36.521.715-42.156-6.536-1.21-1.556-2.058-3.454-.094-6.778a108.415 108.415 0 0 0 8.405-17.684 7.49 7.49 0 0 0-8.608-9.909c-16.396 3.531-33.365 5.322-50.439 5.322-22.529 0-44.625-3.08-65.673-9.154a7.496 7.496 0 0 0-9.541 6.584c-2.325 24.834-17.896 34.457-30.555 38.154-17.294 5.051-36.521.715-42.156-6.536-1.21-1.556-2.058-3.454-.094-6.778 17.883-30.265 14.781-57.517 14.04-62.368a7.493 7.493 0 0 0-2.788-5.207c-12.525-10.009-23.244-21.269-31.858-33.467-6.701-9.49-16.588-16.55-27.846-19.882l-.589-.176c-13.291-4.003-23.028-15.053-25.41-28.842a157.186 157.186 0 0 1-2.278-26.695c0-9.765.908-19.531 2.7-29.029 1.364-7.232 7.785-12.425 15.221-12.366l.462.003c11.495.077 21.87-6.329 27.164-16.705 9.399-18.419 23.017-35.036 40.476-49.393a7.49 7.49 0 0 0 2.446-7.835c-9.885-39.428-6.323-57.607-.259-61.194 3.031-1.791 15.991-4.775 55.623 32.077a7.492 7.492 0 0 0 7.441 1.631c23.332-7.668 48.053-11.555 73.474-11.555 40.764 0 79.758 10.022 112.769 28.984a7.492 7.492 0 1 0 7.462-12.993c-35.277-20.264-76.853-30.975-120.231-30.975-25.493 0-50.343 3.686-73.942 10.964-32.955-29.982-55.325-39.841-70.222-31.03-14.588 8.626-17.173 33.315-7.703 73.406-17.334 14.969-31.006 32.14-40.682 51.101-2.704 5.299-7.958 8.58-13.748 8.532l-.418-.002c-14.727-.143-27.351 10.202-30.061 24.572a171.999 171.999 0 0 0-2.96 31.806c0 9.817.84 19.657 2.497 29.246 3.353 19.417 17.092 34.987 35.851 40.636z"/>
    <path d="M271.66 166.82c-12.87 0-25.54 2.157-37.66 6.411a7.492 7.492 0 0 0-4.589 9.549c1.349 3.845 5.713 5.936 9.55 4.588a98.493 98.493 0 0 1 32.699-5.565 99.181 99.181 0 0 1 32.673 5.508 7.49 7.49 0 0 0 9.538-4.614 7.492 7.492 0 0 0-4.613-9.538 114.171 114.171 0 0 0-37.598-6.339z"/>
    <ellipse transform="rotate(-154.237 119.36 257.651)" cx="119.361" cy="257.654" rx="11.459" ry="27.723"/>
    <path d="M225.326 30.842a7.493 7.493 0 0 0-10.133 3.098c-4.879 9.175-7.458 19.535-7.458 29.961 0 35.235 28.665 63.902 63.902 63.902s63.902-28.666 63.902-63.902S306.873 0 271.637 0a63.79 63.79 0 0 0-33.099 9.232 7.493 7.493 0 0 0 7.772 12.81 48.817 48.817 0 0 1 25.327-7.058c26.973 0 48.918 21.945 48.918 48.918s-21.945 48.918-48.918 48.918-48.918-21.945-48.918-48.918a49.01 49.01 0 0 1 5.704-22.927 7.493 7.493 0 0 0-3.097-10.133z"/>
    <path d="M305.568 63.902c0-18.709-15.221-33.932-33.932-33.932s-33.932 15.221-33.932 33.932 15.221 33.932 33.932 33.932 33.932-15.223 33.932-33.932zm-52.878 0c0-10.447 8.501-18.948 18.948-18.948s18.948 8.5 18.948 18.948c0 10.447-8.501 18.948-18.948 18.948s-18.948-8.501-18.948-18.948z"/>
</svg>