<svg xmlns="http://www.w3.org/2000/svg" viewBox="0 0 48 48">
    <defs>
        <style>.cls-1{fill:#de4a8c}.cls-2{fill:#f26da6}.cls-4{fill:#dad7e5}</style>
    </defs>
    <g id="Save_Money" data-name="Save Money">
        <path class="cls-1" d="M6 30c-4.64 0-6.28-6-4-6a1 1 0 0 1 1 1 3 3 0 0 0 3 3 1 1 0 0 1 0 2z"/>
        <path class="cls-1" d="m47 25-1 8-4.08 1a12 12 0 0 1-5.17 5.54c-.07.66 0-.38-.75 7.46h-6c-.3-3-.28-2.84-.6-6H18.6l-.6 6h-6l-.75-7.46C1 33.93 4 18.1 16 17c0 5.28 8 5.21 8 0h4a5 5 0 0 0 9.6 2 12.05 12.05 0 0 1 4.32 5z"/>
        <path class="cls-2" d="m47 25-1 8-4.08 1a12 12 0 0 1-5.17 5.54V40H23c-11.77 0-16.43-15.31-6.83-21.87C17.45 22.55 24 21.59 24 17h4c0 5.43 7.46 6.9 9.6 2a12.05 12.05 0 0 1 4.32 5z"/>
        <path class="cls-2" d="M38 12c0 5.11.13 5.72-.4 7a5 5 0 0 1-9.6-2 7 7 0 0 1 7-7h1a2 2 0 0 1 2 2z"/>
        <path class="cls-1" d="M35.7 21.2c-2.89 4.47-10.34 2.06-9-4.2H28a5 5 0 0 0 7.7 4.2zM39 28a1 1 0 0 1-1-1 1 1 0 0 0-2 0 1 1 0 0 1-1 1c-1.91 0-1-4 2-4s3.92 4 2 4zM25 22H15a1 1 0 0 1 0-2h10a1 1 0 0 1 0 2z"/>
        <path d="M24 17a4 4 0 1 1-4-4 4 4 0 0 1 4 4z" style="fill:#fc6"/>
        <path class="cls-4" d="M23 10V6a1 1 0 0 1 2 0v4a1 1 0 0 1-2 0zM15 11V7a1 1 0 0 1 2 0v4a1 1 0 0 1-2 0zM19 7V2a1 1 0 0 1 2 0v5a1 1 0 0 1-2 0z"/>
    </g>
</svg>