<svg xmlns="http://www.w3.org/2000/svg" viewBox="0 0 64 64">
    <defs>
        <style>.cls-1{fill:#f19920}.cls-3{fill:#ffe27a}.cls-4{fill:#0e9347}.cls-6{fill:#3bb54a}</style>
    </defs>
    <g id="send_money" data-name="send money">
        <path class="cls-1" d="M12 24.2v11l-5.86-3.52a2.33 2.33 0 0 1 0-4zM34 32c0 3.31-3.13 6-7 6a7.55 7.55 0 0 1-5-1.81 5.39 5.39 0 0 1 0-8.38A7.55 7.55 0 0 1 27 26c3.87 0 7 2.69 7 6zM59 29.67a2.33 2.33 0 0 1-1.09 2L52 35.15V24.2l5.86 3.47a2.32 2.32 0 0 1 1.14 2z"/>
        <path d="M59 29.67V55a4 4 0 0 1-4 4H9a4 4 0 0 1-4-4V29.67a2.33 2.33 0 0 0 1.09 2L12 35.15l4 2.37 14 8.27a4 4 0 0 0 4.08 0l4-2.35 4-2.37 10-5.92 5.86-3.47A2.33 2.33 0 0 0 59 29.67z" style="fill:#f6b545"/>
        <path class="cls-3" d="M6.09 56.35a1 1 0 0 1-.71-.29 1 1 0 0 1 0-1.42 1.69 1.69 0 0 1 .31-.21l19.9-11.79a1 1 0 1 1 1 1.72l-4.1 2.43-15.84 9.39a1 1 0 0 1-.56.17zM57.91 56.35a1 1 0 0 1-.58-.18L37.39 44.36a1 1 0 0 1 1-1.72l20 11.82a1.44 1.44 0 0 1 .25.18 1 1 0 0 1 0 1.42 1 1 0 0 1-.73.29z"/>
        <path class="cls-4" d="M42 9v32.07l-4 2.37V13a4 4 0 0 1-4-4H20a.57.57 0 0 1 0 .13 4 4 0 0 1-3 3.74 4.17 4.17 0 0 1-1 .13v24.52l-4-2.37V9a4 4 0 0 1 4-4h22a4 4 0 0 1 3.85 2.94A3.72 3.72 0 0 1 42 9z"/>
        <path d="M34 32c0 3.31-3.13 6-7 6a7.55 7.55 0 0 1-5-1.81 5.39 5.39 0 0 1 0-8.38A7.55 7.55 0 0 1 27 26c3.87 0 7 2.69 7 6z" style="fill:#89c763"/>
        <path class="cls-6" d="M47 13v25.11l-5 3V9h1a4 4 0 0 1 3.85 2.94A3.72 3.72 0 0 1 47 13z"/>
        <path class="cls-4" d="M52 17v18.15l-5 3V13h1a4 4 0 0 1 3.85 2.94A3.72 3.72 0 0 1 52 17z"/>
        <path class="cls-6" d="M34 9H21a4.17 4.17 0 0 0-1 .13 4 4 0 0 1-3 3.74 4.17 4.17 0 0 1-1 .13v24.52l14 8.27a4 4 0 0 0 4.08 0l4-2.35V13A4 4 0 0 1 34 9zm-7 29a7.55 7.55 0 0 1-5-1.81 5.39 5.39 0 0 1 0-8.38A7.55 7.55 0 0 1 27 26c3.87 0 7 2.69 7 6s-3.13 6-7 6z"/>
    </g>
</svg>