<svg xmlns="http://www.w3.org/2000/svg" xmlns:xlink="http://www.w3.org/1999/xlink" viewBox="0 0 2048 2048" style="enable-background:new 0 0 2048 2048" xml:space="preserve">
  <style>.st20{fill:#542a19}.st21{fill:none;stroke:#542a1a;stroke-width:5;stroke-miterlimit:10}</style>
  <g id="Layer_5">
    <linearGradient id="SVGID_1_" gradientUnits="userSpaceOnUse" x1="280.28" y1="1023.78" x2="1767.72" y2="1023.78">
      <stop offset="0" style="stop-color:#fedc52"/>
      <stop offset=".995" style="stop-color:#fcb117"/>
    </linearGradient>
    <circle cx="1024" cy="1023.78" r="743.72" style="fill:url(#SVGID_1_)"/>
    <g style="opacity:.81">
      <path d="M540.23 769.93c-2.07 0-4.16-.21-6.27-.66-16.21-3.44-26.55-19.38-23.11-35.58 21.98-103.42 83.1-188.9 176.75-247.22 76.68-47.75 173.1-74.9 264.59-74.41 16.57.08 29.93 13.58 29.85 30.15-.08 16.52-13.5 29.85-30 29.85h-.16c-130.13-.67-339.34 71.79-382.34 274.11-2.99 14.1-15.45 23.76-29.31 23.76z" style="fill:#fff"/>
    </g>
    <g>
      <ellipse class="st20" cx="775.69" cy="837.74" rx="62.77" ry="88.74"/>
      <ellipse class="st20" cx="1272.31" cy="837.74" rx="62.77" ry="88.74"/>
    </g>
    <g>
      <defs>
        <path id="XMLID_8_" d="M1168.61 1267.05c0 92.61-53.33 156.45-144.61 156.45-88 0-144.61-63.83-144.61-156.45 0-92.62 76.96-167.7 144.61-167.7 74.07 0 144.61 75.08 144.61 167.7z"/>
      </defs>
      <use xlink:href="#XMLID_8_" style="overflow:visible;fill:#680d0d"/>
      <clipPath id="XMLID_14_">
        <use xlink:href="#XMLID_8_" style="overflow:visible"/>
      </clipPath>
    </g>
    <g>
      <path d="M1319.05 1437.5c-2-9.15-7.15-32.76-29.55-44.32-15.65-8.07-34.71-7.69-49.24 0-9.53 5.04-16.12 12.7-20.55 19.67-2.78-10.9-10.94-33.73-23.76-49.22-23.44-28.31-55.2-35.4-80.43-41.04a222.617 222.617 0 0 0-32.76-4.79h.01c.66-7.39 1.65-28.83 3.2-42.81 6.72-60.66 13.22-86.43 13.13-129.67-.08-38.87-5.39-49.36-9.85-55.81-17.18-24.85-47.94-27.68-50.88-27.9-24.31-1.86-46.16 9.34-59.09 24.62-8.2 9.69-11.74 19.75-14.77 31.19-9.97 37.59-6.85 61.27-8.21 98.48-1.53 41.86-4.46 69.57-9.23 101.31-2.26 15.02-1.99 13.45-6.38 35.71h.01c-17.02 10.48-27.95 20.15-32 23.83-36.39 33.13-51.46 69.58-59.09 88.64-9.32 23.27-27.63 78.61-14.77 146.09 4.42 23.2 10.58 55.56 36.11 86.99 22.9 28.21 49.41 40.91 67.3 49.24 20.24 9.43 70.92 33.03 132.95 18.06 15.03-3.63 57.99-14.65 90.28-54.17 14.02-17.16 23.3-40.71 26.26-47.6 11.08-25.83 8.09-29.9 18.06-50.88 11.69-24.61 26.36-41.25 37.75-54.17 10.78-12.23 10.22-9.63 41.04-41.04 22.63-23.06 28.87-30.51 32.83-42.68 1.15-3.56 5.77-18.76 1.63-37.73z" style="fill:#f1a221"/>
      <path class="st21" d="M1219.71 1412.86c-2.78-10.9-10.94-33.73-23.76-49.22-23.44-28.31-55.2-35.4-80.43-41.04-61.32-13.69-112.44 2.18-132.95 9.85-41.29 15.43-67.13 38.18-73.86 44.32-36.39 33.13-51.46 69.58-59.09 88.64-9.32 23.27-27.63 78.61-14.77 146.09 4.42 23.2 10.58 55.56 36.11 86.99 22.9 28.21 49.41 40.91 67.3 49.24 20.24 9.43 70.92 33.03 132.95 18.06 15.03-3.63 57.99-14.65 90.28-54.17 14.02-17.16 23.3-40.71 26.26-47.6 11.08-25.83 8.09-29.9 18.06-50.88 11.69-24.61 26.36-41.25 37.75-54.17 10.78-12.23 10.22-9.63 41.04-41.04 22.63-23.06 28.87-30.51 32.83-42.68 1.17-3.59 5.78-18.78 1.64-37.75-2-9.15-7.15-32.76-29.55-44.32-15.65-8.07-34.71-7.69-49.24 0-18.16 9.61-25.65 28.72-27.9 34.47-5.05 12.87-3.18 19.28-9.85 27.9-7.25 9.36-21.11 14.51-29.18 16.19"/>
      <path class="st21" d="M1043.29 1388.26c23.44.93 41.48 6.89 52.53 11.49 6.29 2.62 38.69 16.64 64.02 50.88 8.71 11.78 17.68 24.23 19.7 42.68.91 8.31 2.68 24.45-8.21 37.75-1.58 1.93-12.86 15.25-31.19 14.77-13.1-.34-23.94-6.86-27.68-12.38"/>
      <path class="st21" d="M962.86 1471.97c17.4-2.11 49.92-3.45 85.35 11.49 30.34 12.8 48.11 31.34 52.53 36.11 8.15 8.81 18.75 20.52 24.62 39.39 2.06 6.62 5.51 20.46 3.28 37.75-1.54 11.96-3.57 27.73-16.41 39.39-3.29 2.99-14.83 13.47-31.19 11.49-10.69-1.29-18.51-9.07-26.26-16.41-5.58-5.28-5.39-6.58-12.58-13.4-1.61-1.53-8.21-7.72-18.06-14.5-2.93-2.02-11.44-7.73-23.53-13.4-10.09-4.74-25.3-10.68-45.14-14.23M940.69 1352.94c4.39-22.26 4.12-20.69 6.38-35.71 4.77-31.75 7.7-59.45 9.23-101.31 1.36-37.22-1.76-60.9 8.21-98.48 3.03-11.43 6.57-21.5 14.77-31.19 12.93-15.28 34.79-26.48 59.09-24.62 2.94.23 33.71 3.06 50.88 27.9 4.46 6.45 9.77 16.94 9.85 55.81.09 43.24-6.41 69.02-13.13 129.67-1.55 13.98-2.54 35.42-3.2 42.81"/>
    </g>
  </g>
</svg>