<svg xmlns="http://www.w3.org/2000/svg" viewBox="0 0 512 512" style="enable-background:new 0 0 512 512" xml:space="preserve">
    <style>.st6{fill:#eec0c5}.st30{fill:#fff}.st96{fill:#d9b1b8}.st97{fill:#b2939c}.st98{fill:#c5a2ab}.st188{fill:#dadada}.st303{fill:#736f6d}</style>
    <g id="BULINE">
        <circle id="XMLID_3096_" cx="256" cy="256" r="256" style="fill:#9ac6d1"/>
    </g>
    <g id="Icons">
        <g id="XMLID_3086_">
            <g id="XMLID_3116_">
                <path id="XMLID_3120_" class="st96" d="M459.3 178.3c1.8 5.2 5.4 10.1 5.1 15.2-.3 5.3-4.6 9.8-6.9 14.5-2.3 4.7-3.1 10.8-7.1 14.4l-1.2.9c-2.6 1.7-5.9 2.4-9.2 3.2-1.6.4-3.2.8-4.7 1.3s-3 1.2-4.5 1.9c-3.6 1.7-7.1 3.4-10.8 3.2-5.3-.3-9.8-4.6-14.5-6.9-4.7-2.3-10.8-3.1-14.4-7.1-3.4-3.9-3.6-9.9-5.4-15.1-1.8-5.2-5.4-10.1-5.1-15.2.3-5.3 4.6-9.8 6.9-14.5 2.3-4.7 3.1-10.8 7.1-14.4 2.7-2.4 6.6-3.2 10.4-4.1 1.6-.4 3.2-.8 4.7-1.3s3-1.2 4.5-1.9c3.1-1.4 6.1-2.9 9.2-3.2h1.5c5.3.3 9.8 4.6 14.5 6.9 4.7 2.3 10.8 3.1 14.4 7.1 3.5 3.9 3.7 10 5.5 15.1z"/>
                <path id="XMLID_3119_" class="st6" d="M459.3 178.3c1.8 5.2 5.4 10.1 5.1 15.2-.3 5.3-4.6 9.8-6.9 14.5-2.3 4.7-3.1 10.8-7.1 14.4l-1.2.9c-1.6.4-3.2.8-4.7 1.3s-3 1.2-4.5 1.9c-3.1 1.4-6.1 2.9-9.2 3.2h-1.5c-5.3-.3-9.8-4.6-14.5-6.9-4.7-2.3-10.8-3.1-14.4-7.1-3.4-3.9-3.6-9.9-5.4-15.1-1.8-5.2-5.4-10.1-5.1-15.2.3-5.3 4.6-9.8 6.9-14.5 2.3-4.7 3.1-10.8 7.1-14.4l1.2-.9c2.6-1.7 5.9-2.4 9.2-3.2 1.6-.4 3.2-.8 4.7-1.3s3-1.2 4.5-1.9h1.5c5.3.3 9.8 4.6 14.5 6.9 4.7 2.3 10.8 3.1 14.4 7.1 3.4 3.9 3.6 10 5.4 15.1z"/>
                <path id="XMLID_3118_" class="st97" d="M439.1 185.3c2.8 7.9-.6 16.5-7.5 20.7-1 .6-2.1 1.1-3.3 1.5-9.1 3.2-19.1-1.7-22.2-10.8-3.2-9.1 1.7-19.1 10.8-22.2 1.2-.4 2.4-.7 3.5-.8 8-1 15.9 3.7 18.7 11.6z"/>
                <ellipse id="XMLID_3117_" transform="rotate(-19.098 425.974 189.878)" class="st98" cx="426" cy="189.9" rx="13.9" ry="17.1"/>
            </g>
            <g id="XMLID_3111_">
                <path id="XMLID_3115_" class="st96" d="M103.5 308c1.8 5.2 5.4 10.1 5.1 15.2-.3 5.3-4.6 9.8-6.9 14.5-2.3 4.7-3.1 10.8-7.1 14.4l-1.2.9c-2.6 1.7-5.9 2.4-9.2 3.2-1.6.4-3.2.8-4.7 1.3s-3 1.2-4.5 1.9c-3.6 1.7-7.1 3.4-10.8 3.2-5.3-.3-9.8-4.6-14.5-6.9-4.7-2.3-10.8-3.1-14.4-7.1-3.4-3.9-3.6-9.9-5.4-15.1-1.8-5.2-5.4-10.1-5.1-15.2.3-5.3 4.6-9.8 6.9-14.5 2.3-4.7 3.1-10.8 7.1-14.4 2.7-2.4 6.6-3.2 10.4-4.1 1.6-.4 3.2-.8 4.7-1.3s3-1.2 4.5-1.9c3.1-1.4 6.1-2.9 9.2-3.2h1.5c5.3.3 9.8 4.6 14.5 6.9 4.7 2.3 10.8 3.1 14.4 7.1 3.5 3.8 3.7 9.9 5.5 15.1z"/>
                <path id="XMLID_3114_" class="st6" d="M103.5 308c1.8 5.2 5.4 10.1 5.1 15.2-.3 5.3-4.6 9.8-6.9 14.5-2.3 4.7-3.1 10.8-7.1 14.4l-1.2.9c-1.6.4-3.2.8-4.7 1.3s-3 1.2-4.5 1.9c-3.1 1.4-6.1 2.9-9.2 3.2h-1.5c-5.3-.3-9.8-4.6-14.5-6.9-4.7-2.3-10.8-3.1-14.4-7.1-3.4-3.9-3.6-9.9-5.4-15.1-1.8-5.2-5.4-10.1-5.1-15.2.3-5.3 4.6-9.8 6.9-14.5 2.3-4.7 3.1-10.8 7.1-14.4l1.2-.9c2.6-1.7 5.9-2.4 9.2-3.2 1.6-.4 3.2-.8 4.7-1.3s3-1.2 4.5-1.9h1.5c5.3.3 9.8 4.6 14.5 6.9 4.7 2.3 10.8 3.1 14.4 7.1 3.4 3.8 3.6 9.9 5.4 15.1z"/>
                <path id="XMLID_3113_" class="st97" d="M83.3 315c2.8 7.9-.6 16.5-7.5 20.7-1 .6-2.1 1.1-3.3 1.5-9.1 3.2-19.1-1.7-22.2-10.8-3.2-9.1 1.7-19.1 10.8-22.2 1.2-.4 2.4-.7 3.5-.8 8-1.1 15.9 3.6 18.7 11.6z"/>
                <ellipse id="XMLID_3112_" transform="rotate(-19.098 70.16 319.507)" class="st98" cx="70.2" cy="319.5" rx="13.9" ry="17.1"/>
            </g>
            <g id="XMLID_3106_">
                <path id="XMLID_3110_" class="st96" d="M174.6 146.1c1.3 3.8 4 7.4 3.7 11.1-.2 3.9-3.3 7.1-5 10.6-1.7 3.5-2.3 7.9-5.2 10.5-.3.2-.6.5-.9.7-1.9 1.3-4.3 1.8-6.7 2.3-1.2.3-2.4.6-3.5.9-1.1.4-2.2.9-3.3 1.4-2.6 1.2-5.2 2.5-7.9 2.4-3.9-.2-7.1-3.3-10.6-5-3.5-1.7-7.9-2.3-10.5-5.2-2.5-2.8-2.6-7.3-3.9-11.1-1.3-3.8-4-7.4-3.7-11.1.2-3.9 3.3-7.1 5-10.6 1.7-3.5 2.3-7.9 5.2-10.5 2-1.8 4.8-2.4 7.6-3 1.2-.3 2.3-.5 3.4-.9s2.2-.9 3.3-1.4c2.2-1.1 4.5-2.1 6.7-2.3h1.1c3.9.2 7.1 3.3 10.6 5 3.5 1.7 7.9 2.3 10.5 5.2 2.6 2.8 2.8 7.2 4.1 11z"/>
                <path id="XMLID_3109_" class="st6" d="M174.6 146.1c1.3 3.8 4 7.4 3.7 11.1-.2 3.9-3.3 7.1-5 10.6-1.7 3.5-2.3 7.9-5.2 10.5-.3.2-.6.5-.9.7-1.2.3-2.3.5-3.4.9s-2.2.9-3.3 1.4c-2.2 1.1-4.5 2.1-6.7 2.3h-1.1c-3.9-.2-7.1-3.3-10.6-5-3.5-1.7-7.9-2.3-10.5-5.2-2.5-2.8-2.6-7.3-3.9-11.1-1.3-3.8-4-7.4-3.7-11.1.2-3.9 3.3-7.1 5-10.6 1.7-3.5 2.3-7.9 5.2-10.5.3-.2.6-.5.9-.7 1.9-1.3 4.3-1.8 6.7-2.3 1.2-.3 2.4-.6 3.5-.9 1.1-.4 2.2-.9 3.3-1.4h1.1c3.9.2 7.1 3.3 10.6 5 3.5 1.7 7.9 2.3 10.5 5.2 2.3 2.9 2.5 7.3 3.8 11.1z"/>
                <path id="XMLID_3108_" class="st97" d="M159.8 151.2c2 5.8-.4 12.1-5.5 15.1-.7.5-1.6.8-2.4 1.1-6.7 2.3-14-1.2-16.3-7.9-2.3-6.7 1.2-14 7.9-16.3.9-.3 1.7-.5 2.6-.6 5.9-.6 11.7 2.8 13.7 8.6z"/>
                <ellipse id="XMLID_3107_" transform="rotate(-19.098 150.217 154.545)" class="st98" cx="150.2" cy="154.5" rx="10.1" ry="12.5"/>
            </g>
            <g id="XMLID_3100_">
                <path id="XMLID_3104_" class="st96" d="M466.9 339.8c1.3 3.8 4 7.4 3.7 11.1-.2 3.9-3.3 7.1-5 10.6-1.7 3.5-2.3 7.9-5.2 10.5-.3.2-.6.5-.9.7-1.9 1.3-4.3 1.8-6.7 2.3-1.2.3-2.4.6-3.5.9-1.1.4-2.2.9-3.3 1.4-2.6 1.2-5.2 2.5-7.9 2.4-3.9-.2-7.1-3.3-10.6-5-3.5-1.7-7.9-2.3-10.5-5.2-2.5-2.8-2.6-7.3-3.9-11.1-1.3-3.8-4-7.4-3.7-11.1.2-3.9 3.3-7.1 5-10.6 1.7-3.5 2.3-7.9 5.2-10.5 2-1.8 4.8-2.4 7.6-3 1.2-.3 2.3-.5 3.4-.9s2.2-.9 3.3-1.4c2.2-1.1 4.5-2.1 6.7-2.3h1.1c3.9.2 7.1 3.3 10.6 5 3.5 1.7 7.9 2.3 10.5 5.2 2.7 2.7 2.8 7.2 4.1 11z"/>
                <path id="XMLID_3103_" class="st6" d="M466.9 339.8c1.3 3.8 4 7.4 3.7 11.1-.2 3.9-3.3 7.1-5 10.6-1.7 3.5-2.3 7.9-5.2 10.5-.3.2-.6.5-.9.7-1.2.3-2.3.5-3.4.9s-2.2.9-3.3 1.4c-2.2 1.1-4.5 2.1-6.7 2.3H445c-3.9-.2-7.1-3.3-10.6-5-3.5-1.7-7.9-2.3-10.5-5.2-2.5-2.8-2.6-7.3-3.9-11.1s-4-7.4-3.7-11.1c.2-3.9 3.3-7.1 5-10.6 1.7-3.5 2.3-7.9 5.2-10.5.3-.2.6-.5.9-.7 1.9-1.3 4.3-1.8 6.7-2.3 1.2-.3 2.4-.6 3.5-.9 1.1-.4 2.2-.9 3.3-1.4h1.1c3.9.2 7.1 3.3 10.6 5 3.5 1.7 7.9 2.3 10.5 5.2 2.4 2.8 2.5 7.3 3.8 11.1z"/>
                <path id="XMLID_3102_" class="st97" d="M452.1 344.9c2 5.8-.4 12.1-5.5 15.1-.7.5-1.6.8-2.4 1.1-6.7 2.3-14-1.2-16.3-7.9-2.3-6.7 1.2-14 7.9-16.3.9-.3 1.7-.5 2.6-.6 5.9-.7 11.7 2.8 13.7 8.6z"/>
                <ellipse id="XMLID_3101_" transform="rotate(-19.098 442.542 348.198)" class="st98" cx="442.5" cy="348.2" rx="10.1" ry="12.5"/>
            </g>
            <g id="XMLID_3087_">
                <path id="XMLID_3099_" class="st303" d="M279.2 454.2h-5.1v-57h-24.9v57h-5.1c-18 0-32.6 14.6-32.6 32.6h100.2c.1-18-14.5-32.6-32.5-32.6z"/>
                <path id="XMLID_3098_" class="st303" d="M297.2 168.2h-67.8l-22.3-90.5c0-8.7 7.1-15.8 15.8-15.8h75.8c8.7 0 15.8 7.1 15.8 15.8l-17.3 90.5z"/>
                <g id="XMLID_3091_">
                    <path id="XMLID_3097_" class="st188" d="M404.2 392.9c-44.6 8-88.8 12.4-132.5 13.1-52.1 1-103.7-3.4-154.5-13-4.9-.9-8.1-5.6-7.2-10.5 12.9-69.5 50.6-139 113-208.3.3-3.3.4-6.6.4-10 0-3.5-.2-7-.6-10.6-.6-5.6-1.6-11.3-3-17.1h86.6c-1.9 5.9-3.3 11.6-4.2 17.1-.6 3.9-1 7.7-1 11.4-.1 3.3.1 6.5.4 9.6h-.1C361.3 243.8 398 313 411.7 382.2c.8 5-2.5 9.8-7.5 10.7z"/>
                    <path id="XMLID_3095_" class="st30" d="M404 392.9c-7.8 1.3-15.6 2.6-23.3 3.7-22.6 3.3-45.1 5.8-67.5 7.4-8.8.6-17.6 1.1-26.3 1.5-6.7.3-13.3.5-20 .6-11.4-.2-22.7-.6-34-1.3-5.7-.3-11.4-.7-17-1.2-22.6-1.8-45-4.5-67.4-8.3-4.5-.7-9-1.5-13.4-2.4-5.1-.9-8.4-5.6-7.5-10.5 12.1-63.4 45.7-126.7 100.5-190 2.4-2.8 4.9-5.6 7.5-8.4 2.9-3.3 6-6.6 9-9.9.3-3.3.4-6.6.4-10 0-3.5-.2-7-.6-10.6-.6-5.6-1.6-11.3-3.1-17.1h61.4c-2 5.9-3.4 11.6-4.3 17.1-.6 3.9-1 7.7-1.1 11.4-.1 3.3.1 6.5.5 9.6h-.1c61.9 69.2 99.9 138.4 114.1 207.6.8 5.1-2.7 9.9-7.8 10.8z"/>
                    <path id="XMLID_3094_" class="st188" d="M313.1 404c4.5-22.4 11.6-89.2-20.3-222.8 0 0 78.7 101.3 87.8 215.4-22.6 3.3-45.1 5.8-67.5 7.4z"/>
                    <path id="XMLID_3093_" class="st188" d="M235.5 184c-30.9 130.9-24.2 196.9-19.7 219.5-22.6-1.8-45-4.5-67.4-8.3 7.7-90.9 59.4-173.6 79.6-202.8 5-7.3 8.1-11.2 8.1-11.2-.2 1-.4 1.9-.6 2.8z"/>
                    <path id="XMLID_3092_" class="st188" d="M286.8 405.5c-6.7.3-13.3.5-20 .6-11.4-.2-22.7-.6-34-1.3L264 183l22.8 222.5z"/>
                </g>
                <path id="XMLID_3090_" class="st188" d="M305.9 136.5h-86.2c-25.5-46.4 3.7-74.5 3.7-74.5l13.6 8.7 6.8 4.3c8.6 5.6 19.1 6.9 28.7 4 2.8-.9 5.6-2.1 8.2-3.7L302.1 62s3.1 2.9 6.5 8.4c7.1 11.6 15.2 34.6-2.7 66.1z"/>
                <path id="XMLID_3089_" class="st30" d="M305.9 136.5h-66.1c-17.1-31.2-9.6-54.1-2.7-65.8l6.8 4.3c8.6 5.6 19.1 6.9 28.7 4 9.4 2.8 19.7 1.6 28.2-3.7l7.9-4.9c7 11.6 15.1 34.6-2.8 66.1z"/>
                <path id="XMLID_3088_" class="st303" d="M277.9 61.9h-34.2V35.4c0-5.2 4.2-9.4 9.4-9.4h15.4c5.2 0 9.4 4.2 9.4 9.4v26.5z"/>
            </g>
        </g>
    </g>
</svg>