<svg xmlns="http://www.w3.org/2000/svg" viewBox="0 0 512 512" style="enable-background:new 0 0 512 512" xml:space="preserve">
    <style>.st0{fill:#e9b12d}.st15{fill:#e39123}.st16{fill:#fff}.st33{fill:#487fde}.st50{fill:#815048}.st51{fill:#6f4232}.st100{fill:none;stroke:#4c3328;stroke-width:10;stroke-linecap:round;stroke-miterlimit:10}.st263{fill:#826443}.st264{fill:#d9aa74}</style>
    <g id="BULINE">
        <circle id="XMLID_2288_" cx="256" cy="256" r="256" style="fill:#514896"/>
    </g>
    <g id="Icons">
        <g id="XMLID_3606_">
            <path id="XMLID_3742_" class="st16" d="M512 256c0 7.1-.3 14.1-.9 21-6.6 81.3-51.2 151.8-115.9 193.8-36.7 23.8-79.9 38.5-126.3 40.8-4.3.2-8.6.3-12.9.3-3.2 0-6.4-.1-9.6-.2-34.6-1.3-67.4-9.4-97.2-23.1-11-5-21.6-10.9-31.7-17.4 0 0-.1-.1-.2-.1C46.7 425.6 0 346.3 0 256c0-6.5.2-12.9.7-19.3 1.2-15.8 3.8-31.2 7.7-46 19.4 4.2 36.4 14.8 48.6 29.6 5.2 6.3 9.6 13.4 12.9 21 2.3-.6 4.7-1 7.1-1 14.7 0 26.6 11.9 26.6 26.6 0 1-.1 1.9-.2 2.9-.2 1.4-.4 2.7-.8 4 2.2.4 4.5.8 6.6 1.4.2.1.5.1.7.2 3.7.9 7.3 2.1 10.8 3.5 4.7 1.9 9.3 4.2 13.5 6.9 2.5 1.6 5 3.3 7.4 5.1 2.8 2.2 5.5 4.5 8.1 7.1l.2.2c4.7 4.6 8.8 9.8 12.3 15.4 1.1 1.7 2.1 3.5 3.1 5.3h114.9c2.1-1.7 4.3-3.3 6.5-4.8.4-.3.8-.5 1.2-.8 7.1-4.6 15-8.1 23.3-10.5 6-1.7 12.3-2.8 18.7-3.1 1.3-.1 2.7-.1 4.1-.1h.8c7.6 0 15 1 22.1 2.8 3.6 1 7.2 2.1 10.6 3.5 8 3.2 15.4 7.6 22 12.9h7.3c.9-1.9 1.9-3.7 2.9-5.5 3.8-6.7 8.7-12.8 14.3-17.9 4.9-4.5 10.4-8.3 16.3-11.4 7.7-4 16.2-6.7 25.1-7.7.6-.1 1.2-.1 1.8-.2 2.4-.2 4.9-.4 7.3-.4 2.3 0 4.6.1 6.8.3 1.7-22.4 17.9-40.7 39.2-45.7 1.1 8.5 1.5 17 1.5 25.7z"/>
            <path id="XMLID_3053_" d="M511.1 277c-6.6 81.3-51.2 151.8-115.9 193.8-36.7 23.8-79.9 38.5-126.3 40.8-4.3.2-8.6.3-12.9.3-3.2 0-6.4-.1-9.6-.2-34.6-1.3-67.4-9.4-97.2-23.1-11-5-21.6-10.9-31.7-17.4 0 0-.1-.1-.2-.1C46.7 425.6 0 346.3 0 256c0-6.5.2-12.9.7-19.3.1-.2.1-.4.2-.5 22.5 2.8 42.4 14.3 56.2 30.9 5.2 6.3 9.6 13.4 12.9 21 2.3-.6 4.7-1 7.1-1 14.7 0 26.6 11.9 26.6 26.6 0 1-.1 1.9-.2 2.9-.2 1.4-.4 2.7-.8 4 6.3 1 12.4 2.8 18.2 5.1 4.7 1.9 9.3 4.2 13.5 6.9 3 1.8 5.8 3.8 8.5 6 .1.1.2.1.3.2 5.5 4.4 10.4 9.5 14.7 15.1 1.6 2.1 3 4.2 4.4 6.4 1.1 1.7 2.1 3.5 3.1 5.3h114.9c9-7.3 19.6-12.8 31.1-16.1 7.2-2 14.9-3.2 22.8-3.2h.8c7.6 0 15 1 22.1 2.8 12.1 3.2 23.1 8.9 32.5 16.5h7.3c.9-1.9 1.9-3.7 2.9-5.5 3.8-6.7 8.7-12.8 14.3-18 4.9-4.5 10.4-8.3 16.3-11.4 7.7-4 16.2-6.7 25.1-7.7.6-.1 1.2-.1 1.8-.2 2.4-.2 4.9-.4 7.3-.4 2.3 0 4.6.1 6.8.3 1.9-22.4 18.3-40.8 39.7-45.7z" style="fill:#a9e7d8"/>
            <path id="XMLID_3665_" class="st0" d="M335.3 342.6H173.1c-17.9 0-32.4-14.5-32.4-32.4v-10.7c0-17.9 14.5-32.4 32.4-32.4h162.2c17.9 0 32.4 14.5 32.4 32.4v10.7c0 17.9-14.5 32.4-32.4 32.4z"/>
            <path id="XMLID_3664_" class="st15" d="M306 329.6h-99.3c-13.6 0-24.7-11.1-24.7-24.7s11.1-24.7 24.7-24.7H306c13.6 0 24.7 11.1 24.7 24.7s-11.1 24.7-24.7 24.7z"/>
            <path id="XMLID_3663_" class="st50" d="M264.1 353.5h-15.7c-12.6 0-22.8-10.2-22.8-22.8v-37.6c0-12.6 10.2-22.8 22.8-22.8h15.7c12.6 0 22.8 10.2 22.8 22.8v37.6c0 12.5-10.2 22.8-22.8 22.8z"/>
            <path id="XMLID_3662_" class="st51" d="M266.9 353.2c-1.1.2-2.2.2-3.3.2h-15.7c-12.6 0-22.8-10.2-22.8-22.8V293c0-12.6 10.2-22.8 22.8-22.8h15.7c1.1 0 2.2.1 3.3.2-11 1.6-19.5 11.1-19.5 22.6v37.6c0 11.5 8.5 21 19.5 22.6z"/>
            <path id="XMLID_3661_" class="st50" d="M370 158.7h-2.6v-17.3C367.4 79.8 317.6 30 256.1 30S144.8 79.8 144.8 141.3v50.3c0 61.5 49.8 111.3 111.3 111.3 57.2 0 104.4-43.2 110.6-98.8h3.3c8.5 0 15.4-6.9 15.4-15.4V174c0-8.4-6.9-15.3-15.4-15.3z"/>
            <path id="XMLID_3660_" class="st51" d="M184.5 191.6v-50.3c0-54.7 39.4-100.2 91.4-109.5-6.4-1.2-13.1-1.8-19.9-1.8-61.5 0-111.3 49.8-111.3 111.3v17.4h-2.1c-8.5 0-15.4 6.9-15.4 15.4v14.7c0 8.5 6.9 15.4 15.4 15.4h2.8c6.2 55.6 53.4 98.8 110.6 98.8 6.8 0 13.4-.6 19.9-1.8-51.9-9.4-91.4-54.9-91.4-109.6z"/>
            <path id="XMLID_3659_" class="st51" d="M262.6 214.3h-13.8c-4.5 0-8.2-3.7-8.2-8.2 0-4.5 3.7-8.2 8.2-8.2h13.8c4.5 0 8.2 3.7 8.2 8.2 0 4.6-3.7 8.2-8.2 8.2z"/>
            <path id="XMLID_3732_" class="st0" d="M395.2 381.9v89c-36.7 23.8-79.9 38.5-126.3 40.8-4.3.2-8.6.3-12.9.3-3.2 0-6.4-.1-9.6-.2-34.6-1.3-67.4-9.4-97.2-23.1-11-5-21.6-10.9-31.7-17.4 0 0-.1-.1-.2-.1-.2-9-.4-27.8-.5-28v-61.3c0-18.8 10.6-35.1 26.2-43.3 2.9-1.5 6-2.8 9.2-3.7 4.3-1.2 8.8-1.9 13.4-1.9h45.5v-9.3c0-1.8.4-3.4 1.2-4.9 1.3-2.5 3.5-4.3 6.3-5.1 1-.3 1.9-.4 3-.4h70.2c4.1 0 7.6 2.3 9.3 5.7.7 1.4 1.1 3 1.1 4.7v9.3h44.2c3.6 0 7.2.4 10.6 1.2 15.4 3.4 28.1 14.1 34.2 28.3.2.4.4.9.6 1.4.2.6.4 1.1.6 1.7 1.8 5.2 2.8 10.6 2.8 16.3z"/>
            <path id="XMLID_3280_" class="st15" d="M198 333.1c-10.7 0-20.6 3.4-28.6 9.3-4.4 3.2-8.3 7.2-11.4 11.7-5.5 7.9-8.8 17.5-8.8 27.9v106.8c-11-5-21.6-10.9-31.7-17.4V382c0-18.6 10.4-34.8 25.8-43.1 2.9-1.6 6-2.8 9.1-3.8 4.4-1.3 9.1-2 13.9-2H198z"/>
            <path id="XMLID_3281_" d="M268.9 313.3v198.4c-4.3.2-8.6.3-12.9.3-3.2 0-6.4-.1-9.6-.2V313.3h22.5z" style="fill:#76cfb1"/>
            <path id="XMLID_3655_" class="st33" d="M257.6 350.7c-3.6 0-6.4-3.1-6-6.7l2.4-21.7c0-.4.4-.8.9-.8h5.5c.5 0 .8.3.9.8l2.4 21.7c.3 3.6-2.5 6.7-6.1 6.7z"/>
            <g id="XMLID_3651_">
                <path id="XMLID_3654_" d="M283.5 228.6c1.6 0 2.8 1.3 2.8 2.8 0 2.9-.4 5.7-1.1 8.4-1.7 6.2-5.2 11.7-9.9 15.8-5.6 4.9-13 7.9-21.1 7.9-8.1 0-15.5-3-21.1-7.9-4.7-4.1-8.2-9.6-9.9-15.8-.7-2.7-1.1-5.5-1.1-8.4 0-1.6 1.3-2.8 2.8-2.8h58.6z" style="fill:#4c3328"/>
                <path id="XMLID_3653_" d="M275.3 255.6c-5.6 4.9-13 7.9-21.1 7.9-8.1 0-15.5-3-21.1-7.9 5.6-4.9 13-7.9 21.1-7.9 8.1 0 15.5 3 21.1 7.9z" style="fill:#b42a2a"/>
                <path id="XMLID_3652_" class="st16" d="M283.5 228.6c1.6 0 2.8 1.3 2.8 2.8 0 2.9-.4 5.7-1.1 8.4h-62.1c-.7-2.7-1.1-5.5-1.1-8.4 0-1.6 1.3-2.8 2.8-2.8h58.7z"/>
            </g>
            <path id="XMLID_3650_" class="st33" d="M280 405.9h-42.6c-7.9 0-14.3-6.4-14.3-14.3s6.4-14.3 14.3-14.3H280c7.9 0 14.3 6.4 14.3 14.3s-6.4 14.3-14.3 14.3z"/>
            <path id="XMLID_3649_" class="st33" d="M280 451h-42.6c-7.9 0-14.3-6.4-14.3-14.3s6.4-14.3 14.3-14.3H280c7.9 0 14.3 6.4 14.3 14.3S287.9 451 280 451z"/>
            <path id="XMLID_3648_" class="st33" d="M280 496.2h-42.6c-7.9 0-14.3-6.4-14.3-14.3s6.4-14.3 14.3-14.3H280c7.9 0 14.3 6.4 14.3 14.3s-6.4 14.3-14.3 14.3z"/>
            <path id="XMLID_3647_" d="M372.2 144v-43.6c0-46.7-37.9-84.6-84.6-84.6h-63.4c-46.7 0-84.6 37.9-84.6 84.6V144c-17.6 3.2-31 18.6-31 37.2v87.7c0 17.1 13.9 31 31 31s31-13.9 31-31V162.6c0-10.1 8.2-18.2 18.2-18.2H323c10.1 0 18.2 8.2 18.2 18.2v106.2c0 17.1 13.9 31 31 31s31-13.9 31-31v-87.7c0-18.5-13.4-33.9-31-37.1z" style="fill:#9a764b"/>
            <path id="XMLID_3646_" class="st263" d="M286.6 15.9c-46.7 0-84.6 37.9-84.6 84.6V144c-.6.1-1.2.2-1.8.4h-10.7c-10.1 0-18.2 8.2-18.2 18.2v106.2c0 1 0 1.9-.1 2.8-1.4 15.8-14.7 28.2-30.8 28.2-17.1 0-31-13.9-31-31v-87.7c0-18.5 13.4-34 31-37.2v-43.5c0-46.7 37.9-84.6 84.6-84.6h61.6z"/>
            <path id="XMLID_3645_" class="st263" d="M171.4 176.7v92.1c0 1 0 1.9-.1 2.8-.1-.9-.1-1.9-.1-2.8v-87.7c-.1-1.4 0-2.9.2-4.4z"/>
            <path id="XMLID_3644_" d="M339.5 144.4H167.1c-5.8 0-10.6-4.7-10.6-10.6v-4.6c0-35.2 28.5-63.6 63.6-63.6h66.3c35.2 0 63.6 28.5 63.6 63.6v4.6c.1 5.8-4.6 10.6-10.5 10.6z" style="fill:#c79a5b"/>
            <path id="XMLID_3643_" class="st100" d="M294.3 186c5.5 5.5 14.5 5.5 20 0"/>
            <path id="XMLID_3642_" class="st100" d="M198 186c5.5 5.5 14.5 5.5 20 0"/>
            <path id="XMLID_3641_" class="st264" d="M193.2 97c-.2 1.1-1.7 1.2-2.1.2-.1-.2-.2-.4-.2-.6-2.4-6.3.9-13.4 7.4-15.5 6.1-2 12.9 1.4 14.9 7.5v.1c.3 1-.8 1.8-1.7 1.2-3.1-2.1-7.2-2.8-11-1.3-3.8 1.5-6.4 4.7-7.3 8.4z"/>
            <path id="XMLID_3640_" class="st264" d="M227.7 90.6c-.9.7-2-.1-1.7-1.2.1-.2.1-.4.2-.6 2.1-6.4 9.2-9.7 15.6-7.2 6 2.4 9 9.3 6.7 15.3v.1c-.4 1-1.8.8-2.1-.2-1-3.6-3.8-6.7-7.6-8-4-1.3-8.1-.5-11.1 1.8z"/>
            <path id="XMLID_3639_" class="st264" d="M267.9 97c-.2 1.1-1.7 1.2-2.1.2-.1-.2-.2-.4-.2-.6-2.4-6.3.9-13.4 7.4-15.5 6.1-2 12.9 1.4 14.9 7.5v.1c.3 1-.8 1.8-1.7 1.2-3.1-2.1-7.2-2.8-11-1.3-3.9 1.5-6.5 4.7-7.3 8.4z"/>
            <path id="XMLID_3638_" class="st264" d="M302.4 90.6c-.9.7-2-.1-1.7-1.2.1-.2.1-.4.2-.6 2.1-6.4 9.2-9.7 15.6-7.2 6 2.4 9 9.3 6.7 15.3v.1c-.4 1-1.8.8-2.1-.2-1-3.6-3.8-6.7-7.6-8-4-1.3-8.1-.5-11.1 1.8z"/>
            <path id="XMLID_3637_" class="st264" d="M234.4 130c1.1 0 1.5 1.4.6 2-.2.1-.3.2-.5.3-5.7 3.6-13.3 1.7-16.7-4.3-3.1-5.6-1.1-12.9 4.5-16.1 0 0 .1 0 .1-.1.9-.5 1.9.5 1.5 1.4-1.5 3.5-1.3 7.6.8 11 2.3 3.8 5.9 5.7 9.7 5.8z"/>
            <path id="XMLID_3635_" class="st264" d="M189.1 128c1.1 0 1.5 1.4.6 2-.2.1-.3.2-.5.3-5.7 3.6-13.3 1.7-16.7-4.3-3.1-5.6-1.1-12.9 4.5-16.1 0 0 .1 0 .1-.1.9-.5 1.9.5 1.5 1.4-1.5 3.5-1.3 7.6.8 11 2.3 3.8 5.9 5.7 9.7 5.8z"/>
            <path id="XMLID_3634_" class="st264" d="M277.9 130c-1.1 0-1.5 1.4-.6 2 .2.1.3.2.5.3 5.7 3.6 13.3 1.7 16.7-4.3 3.1-5.6 1.1-12.9-4.5-16.1 0 0-.1 0-.1-.1-.9-.5-1.9.5-1.5 1.4 1.5 3.5 1.3 7.6-.8 11-2.3 3.8-5.9 5.7-9.7 5.8z"/>
            <path id="XMLID_3633_" class="st264" d="M311.8 128c-1.1 0-1.5 1.4-.6 2 .2.1.3.2.5.3 5.7 3.6 13.3 1.7 16.7-4.3 3.1-5.6 1.1-12.9-4.5-16.1 0 0-.1 0-.1-.1-.9-.5-1.9.5-1.5 1.4 1.5 3.5 1.3 7.6-.8 11-2.2 3.8-5.9 5.7-9.7 5.8z"/>
            <circle id="XMLID_3614_" class="st16" cx="76.3" cy="126.1" r="15.6"/>
            <circle id="XMLID_3613_" class="st16" cx="403.2" cy="65.6" r="15.6"/>
            <circle id="XMLID_3612_" class="st16" cx="367.7" cy="225.1" r="15.6"/>
            <circle id="XMLID_3610_" class="st16" cx="464.5" cy="217.1" r="15.6"/>
            <circle id="XMLID_3609_" class="st16" cx="140.7" cy="266.1" r="15.6"/>
            <circle id="XMLID_3608_" class="st16" cx="258.7" cy="45.1" r="15.6"/>
            <circle id="XMLID_3607_" class="st16" cx="347.1" cy="403.1" r="15.6"/>
        </g>
    </g>
</svg>