<svg xmlns="http://www.w3.org/2000/svg" viewBox="0 0 512 512" style="enable-background:new 0 0 512 512" xml:space="preserve">
    <circle style="fill:#d7f3ff" cx="256.003" cy="256.004" r="249.99"/>
    <path style="fill:#90bc42" d="M425.17 326.878c10.402 0 18.832 8.43 18.832 18.832 0 10.414-8.43 18.844-18.832 18.844-5.616 0-10.655-2.477-14.106-6.374-3.451 3.896-8.478 6.374-14.094 6.374s-10.643-2.477-14.094-6.374c-3.451 3.896-8.478 6.374-14.094 6.374s-10.643-2.477-14.094-6.374c-3.451 3.896-8.49 6.374-14.106 6.374-10.402 0-18.832-8.43-18.832-18.844 0-10.402 8.43-18.832 18.832-18.832 5.616 0 10.655 2.465 14.106 6.362 3.451-3.896 8.478-6.362 14.094-6.362s10.643 2.465 14.094 6.362c3.451-3.896 8.478-6.362 14.094-6.362s10.643 2.465 14.094 6.362c3.451-3.896 8.49-6.362 14.106-6.362zM89.376 326.878c10.414 0 18.844 8.43 18.844 18.832 0 10.414-8.43 18.844-18.844 18.844-5.616 0-10.643-2.477-14.094-6.374-3.451 3.896-8.478 6.374-14.094 6.374s-10.643-2.477-14.094-6.374c-3.451 3.896-8.478 6.374-14.094 6.374-.782 0-1.563-.048-2.321-.156a247.856 247.856 0 0 1-12.855-32.265c.373.349.734.722 1.07 1.106 3.451-3.896 8.478-6.362 14.106-6.362 5.616 0 10.643 2.465 14.094 6.362 3.451-3.896 8.478-6.362 14.094-6.362s10.643 2.465 14.094 6.362c3.451-3.895 8.478-6.361 14.094-6.361z"/>
    <path style="fill:#9ad14b" d="m470.314 384.71.012.012c-43.725 72.659-123.348 121.267-214.322 121.267-90.986 0-170.621-48.608-214.346-121.279H470.314z"/>
    <path style="fill:#ccc" d="M268.367 349.775c6.073.902 10.27 6.542 9.368 12.615l-3.283 22.32h-22.464l3.776-25.567c.89-6.061 6.542-10.258 12.603-9.368zM225.146 343.402c6.073.902 10.258 6.542 9.368 12.615l-4.221 28.693h-22.464l4.714-31.94c.89-6.061 6.542-10.258 12.603-9.368zM181.926 337.04c6.073.89 10.258 6.53 9.368 12.603l-5.183 35.067h-16.102l-6.205-.914 5.52-37.4c.889-6.061 6.541-10.258 12.602-9.356z"/>
    <path style="fill:#f2f2f2" d="m250.015 95.047-21.261-3.139 6.313-42.823 65.54 9.656-6.325 42.836-21.261-3.139z"/>
    <path style="fill:#f2f2f2" d="m266.659 141.586-23.005-3.391-22.993-3.391-19.71-2.898v-.012l6.361-43.137 21.442 3.151 21.261 3.139 23.006 3.391 21.261 3.139 21.442 3.163-6.362 43.136-19.698-2.898z"/>
    <path style="fill:#f2f2f2" d="m260.297 184.735-23.005-3.392-22.993-3.391-19.71-2.898 6.362-43.148 19.71 2.898 22.993 3.391 23.005 3.391 23.005 3.392 19.698 2.898-6.361 43.148-19.698-2.898z"/>
    <path style="fill:#f2f2f2" d="m253.936 227.883-23.005-3.404-22.994-3.391-19.71-2.898 6.362-43.136 19.71 2.898 22.993 3.391 23.005 3.392 23.006 3.391 19.698 2.898-6.362 43.148-19.71-2.898z"/>
    <path style="fill:#f2f2f2" d="m290.277 277.32-65.708-9.692-23.005-3.392-19.698-2.898 6.361-43.148 19.71 2.898 22.994 3.391 23.005 3.404 22.993 3.391 19.71 2.898z"/>
    <path style="fill:#f2f2f2" d="m264.206 317.558-22.993-3.391-23.006-3.391-23.005-3.391-19.698-2.899v-.012l6.362-43.136 19.698 2.898 23.005 3.392 65.708 9.692-6.361 43.137z"/>
    <path style="fill:#f2f2f2" d="M283.916 320.457v.012l-6.181 41.922c.902-6.073-3.295-11.713-9.368-12.615-6.061-.89-11.713 3.307-12.603 9.368l-3.776 25.567h-21.694l4.221-28.693c.89-6.073-3.295-11.713-9.368-12.615-6.061-.89-11.713 3.307-12.603 9.368l-4.714 31.94h-21.718l5.183-35.067c.89-6.073-3.295-11.713-9.368-12.603-6.061-.902-11.713 3.295-12.603 9.356l6.181-41.91 19.698 2.898 23.005 3.391 23.005 3.391 22.993 3.391 19.71 2.899z"/>
    <path style="fill:#333" d="M256.001.001C114.842.001 0 114.841 0 256s114.842 255.999 256.001 255.999S512 397.158 512 256C512 114.841 397.159.001 256.001.001zm0 12.025c134.528 0 243.974 109.446 243.974 243.974 0 44.703-12.097 86.628-33.17 122.697H431.18v-8.895c10.803-2.7 18.839-12.46 18.839-24.087 0-13.704-11.149-24.853-24.852-24.853a24.823 24.823 0 0 0-14.098 4.406 24.81 24.81 0 0 0-14.097-4.406 24.823 24.823 0 0 0-14.098 4.406c-4.114-2.842-9.025-4.406-14.098-4.406s-9.983 1.565-14.096 4.406a24.813 24.813 0 0 0-14.098-4.406c-13.704 0-24.852 11.149-24.852 24.853 0 11.628 8.037 21.388 18.839 24.087v8.895h-53.157l7.593-51.541c2.798-.15 5.201-2.23 5.626-5.107a6.014 6.014 0 0 0-3.911-6.534l4.646-31.505c2.8-.149 5.202-2.228 5.627-5.107a6.014 6.014 0 0 0-3.911-6.534l4.646-31.506c2.798-.149 5.202-2.228 5.627-5.107a6.011 6.011 0 0 0-3.91-6.532l4.646-31.506c2.8-.149 5.204-2.228 5.627-5.107a6.014 6.014 0 0 0-3.911-6.534l4.646-31.505c2.798-.149 5.202-2.228 5.627-5.107a6.014 6.014 0 0 0-3.911-6.534l4.646-31.506c2.798-.149 5.202-2.23 5.627-5.109a6.013 6.013 0 0 0-5.071-6.826l-20.26-2.987 4.56-30.932 3.604.532a6.014 6.014 0 0 0 1.754-11.897l-84.64-12.48a6.014 6.014 0 0 0-1.755 11.897l3.604.532-4.56 30.93-15.487-2.286c-.022-.004-.043-.004-.065-.006l-4.704-.694a6.012 6.012 0 0 0-2.915 11.605l-4.643 31.487a6.008 6.008 0 0 0-5.629 5.127 6.011 6.011 0 0 0 3.91 6.532l-4.643 31.487a6.01 6.01 0 0 0-5.629 5.127 6.01 6.01 0 0 0 3.91 6.532l-4.643 31.486a6.006 6.006 0 0 0-5.629 5.127 6.01 6.01 0 0 0 3.91 6.532l-4.643 31.487a6.011 6.011 0 0 0-1.72 11.659l-4.643 31.488a6.014 6.014 0 0 0-1.718 11.661l-10.218 69.262h-63.09v-8.895c10.805-2.7 18.844-12.461 18.844-24.091 0-13.7-11.15-24.845-24.857-24.845a24.826 24.826 0 0 0-14.095 4.4c-4.113-2.838-9.022-4.4-14.094-4.4s-9.981 1.562-14.094 4.4a24.828 24.828 0 0 0-14.095-4.4 24.82 24.82 0 0 0-11.422 2.79c-6.21-21.489-9.55-44.187-9.55-67.653 0-134.532 109.447-243.978 243.975-243.978zm169.165 346.516a12.835 12.835 0 0 1-9.595-4.342 6.013 6.013 0 0 0-9.004 0c-2.442 2.76-5.939 4.342-9.594 4.342s-7.152-1.583-9.595-4.342a6.013 6.013 0 0 0-9.004 0 12.828 12.828 0 0 1-9.595 4.342c-3.653 0-7.15-1.583-9.594-4.342a6.013 6.013 0 0 0-9.004 0 12.828 12.828 0 0 1-9.595 4.342c-7.072 0-12.827-5.754-12.827-12.828 0-7.072 5.754-12.828 12.827-12.828 3.655 0 7.152 1.583 9.595 4.342a6.011 6.011 0 0 0 9.004 0 12.827 12.827 0 0 1 9.594-4.342c3.655 0 7.152 1.583 9.595 4.342a6.011 6.011 0 0 0 9.004 0 12.828 12.828 0 0 1 9.595-4.342c3.653 0 7.15 1.583 9.594 4.342a6.011 6.011 0 0 0 9.004 0 12.828 12.828 0 0 1 9.595-4.342c7.072 0 12.827 5.754 12.827 12.828s-5.755 12.828-12.827 12.828zm-78.569 11.27a24.89 24.89 0 0 0 8.085-3.65 24.856 24.856 0 0 0 8.084 3.65v8.886h-16.167v-8.886h-.002zm28.193 0a24.89 24.89 0 0 0 8.085-3.65 24.871 24.871 0 0 0 8.085 3.65v8.886h-16.169v-8.886h-.001zm28.196 0a24.885 24.885 0 0 0 8.084-3.65 24.871 24.871 0 0 0 8.085 3.65v8.886h-16.167v-8.886h-.002zm-174.421-14.67-3.465 23.555h-10.306l3.698-25.054a5.045 5.045 0 0 1 1.999-3.337 5.057 5.057 0 0 1 3.771-.956 5.115 5.115 0 0 1 4.303 5.792zm-2.546-17.688a17.011 17.011 0 0 0-12.702 3.2 16.986 16.986 0 0 0-6.724 11.239l-3.956 26.805h-9.562l4.166-28.183c1.369-9.343-5.113-18.055-14.432-19.42a17.147 17.147 0 0 0-5.158.014l2.921-19.8 96.516 14.231-2.917 19.803a17.109 17.109 0 0 0-4.933-1.515c-9.34-1.375-18.055 5.107-19.425 14.438l-3.017 20.432h-9.542l3.208-21.809c1.37-9.331-5.106-18.049-14.443-19.435zm-55.385 41.243 4.638-31.427a5.04 5.04 0 0 1 1.997-3.335 5.055 5.055 0 0 1 3.784-.945c2.773.406 4.697 3 4.291 5.775l-4.424 29.933h-10.287v-.001zm41.751-283.122 96.513 14.236-4.607 31.245-7.807-1.151 2.707-18.362a6.013 6.013 0 0 0-11.897-1.755l-2.707 18.362-11.105-1.638 2.708-18.361a6.012 6.012 0 1 0-11.897-1.755l-2.708 18.362-11.105-1.638 2.707-18.362a6.013 6.013 0 0 0-11.897-1.755l-2.707 18.361-11.105-1.638 2.707-18.361a6.013 6.013 0 0 0-11.897-1.755l-2.707 18.361-7.808-1.151 4.612-31.245zm81.391-31.759-4.56 30.932-7.351-1.084-2.019-.298 2.707-18.362a6.013 6.013 0 0 0-11.897-1.755l-2.707 18.361-11.105-1.638 2.707-18.361a6.013 6.013 0 0 0-11.897-1.755l-2.707 18.361-9.37-1.383 4.56-30.931 53.639 7.913zm-87.753 74.906 96.515 14.231-4.608 31.25-7.807-1.151 2.707-18.361a6.013 6.013 0 0 0-5.071-6.826 6.008 6.008 0 0 0-6.826 5.071l-2.707 18.361-11.105-1.638 2.707-18.361a6.013 6.013 0 0 0-11.897-1.755l-2.707 18.362-11.103-1.637 2.707-18.362a6.013 6.013 0 0 0-5.071-6.826 6.009 6.009 0 0 0-6.826 5.071l-2.707 18.362-11.105-1.638 2.707-18.361a6.013 6.013 0 0 0-5.071-6.826 6.008 6.008 0 0 0-6.826 5.071l-2.707 18.362-7.807-1.151 4.608-31.248zm-6.363 43.147 96.515 14.23-4.608 31.25-7.807-1.151 2.708-18.362a6.013 6.013 0 0 0-5.071-6.826 6.01 6.01 0 0 0-6.826 5.071l-2.708 18.362-11.105-1.638 2.707-18.361a6.013 6.013 0 0 0-5.071-6.826 6.008 6.008 0 0 0-6.826 5.071l-2.707 18.361-11.105-1.638 2.707-18.361a6.013 6.013 0 0 0-5.071-6.826 6.008 6.008 0 0 0-6.826 5.071l-2.707 18.361-11.103-1.637 2.707-18.361a6.013 6.013 0 0 0-5.071-6.826 6.009 6.009 0 0 0-6.826 5.071l-2.707 18.362-7.808-1.151 4.609-31.246zm-6.361 43.146 96.515 14.231-4.608 31.25-7.807-1.151 2.707-18.362a6.013 6.013 0 0 0-11.897-1.755l-2.707 18.362-11.103-1.638 2.707-18.362a6.013 6.013 0 0 0-5.071-6.826 6.01 6.01 0 0 0-6.826 5.071l-2.707 18.362-11.105-1.638 2.707-18.361a6.013 6.013 0 0 0-5.071-6.826 6.009 6.009 0 0 0-6.826 5.071l-2.707 18.361-11.103-1.637 2.707-18.361a6.013 6.013 0 0 0-5.071-6.826 6.008 6.008 0 0 0-6.826 5.071l-2.707 18.362-7.808-1.152 4.607-31.246zm-6.363 43.147 96.515 14.231-4.608 31.25-7.807-1.151 2.707-18.361a6.013 6.013 0 0 0-5.071-6.826 6.01 6.01 0 0 0-6.826 5.071l-2.707 18.361-11.105-1.637 2.708-18.361a6.013 6.013 0 0 0-11.897-1.755l-2.708 18.362-11.105-1.637 2.707-18.362a6.013 6.013 0 0 0-5.071-6.826 6.01 6.01 0 0 0-6.826 5.071l-2.707 18.362-11.105-1.638 2.707-18.361a6.013 6.013 0 0 0-5.071-6.826 6.01 6.01 0 0 0-6.826 5.071l-2.707 18.362-7.808-1.152 4.611-31.248zm74.777 91.855a5.04 5.04 0 0 1 2-3.338 5.063 5.063 0 0 1 3.771-.956c2.785.414 4.716 3.008 4.304 5.784l-.001.008-2.529 17.181h-10.304l2.759-18.679zm-221.616 9.497a24.898 24.898 0 0 0 6.997-3.355 24.842 24.842 0 0 0 8.081 3.651v8.887h-9.978a244.015 244.015 0 0 1-5.1-9.183zm49.279-10.972c-3.65 0-7.146-1.585-9.595-4.347a6.012 6.012 0 0 0-9 0c-2.448 2.762-5.944 4.347-9.594 4.347-3.65 0-7.144-1.585-9.594-4.347a6.012 6.012 0 0 0-9 0 12.865 12.865 0 0 1-7.992 4.234 242.156 242.156 0 0 1-9.279-22.97 12.82 12.82 0 0 1 7.677-2.568c3.656 0 7.153 1.58 9.595 4.335a6.012 6.012 0 0 0 9 0 12.832 12.832 0 0 1 9.594-4.335c3.656 0 7.152 1.58 9.594 4.335a6.012 6.012 0 0 0 9 0 12.832 12.832 0 0 1 9.595-4.335c7.076 0 12.831 5.751 12.831 12.819 0 7.076-5.756 12.832-12.832 12.832zM67.201 369.81a24.872 24.872 0 0 0 8.081-3.651 24.87 24.87 0 0 0 8.082 3.652v8.887H67.202v-8.888h-.001zm188.8 130.165c-84.762 0-159.553-43.457-203.299-109.252H459.3c-43.746 65.795-118.538 109.252-203.299 109.252z"/>
</svg>