<svg xmlns="http://www.w3.org/2000/svg" width="512" height="512" xml:space="preserve">
    <g>
        <path fill="#6E4224" d="M255.7 165.812s5.087 269.752 40.232 319.585h-82.93s-3.906-235.227 29.985-314.792l12.713-4.793z"/>
        <circle fill="#6E4224" cx="224.987" cy="202.606" r="17.131"/>
        <path fill="#8A532D" d="M229.588 485.397h66.344c-12.265-46.73-38.268-249.645-39.879-305.586-30.093 87.03-26.465 305.586-26.465 305.586z"/>
        <circle fill="#6E4224" cx="267.119" cy="216.738" r="14.262"/>
        <circle fill="#6E4224" cx="313.068" cy="469.788" r="10.212"/>
        <path fill="none" stroke="#6E4224" stroke-width="4" stroke-linecap="round" stroke-linejoin="round" stroke-miterlimit="10" d="M229.002 249.737h26.261M229.002 314.699h23.496M223.473 365.839h30.408M223.473 428.036h30.408M219.326 469.501h52.523"/>
        <circle fill="#B06A39" cx="252.777" cy="195.396" r="16.92"/>
        <circle fill="#8A532D" cx="239.119" cy="219.738" r="14.262"/>
        <path fill="#4FB463" d="M430.636 208.922s-70.205-83.599-185.302-25.589l36.63 32.684 24.22 3.381-10.075-26.098 41.128 30.433 17.387 2.427-12.496-37.463 44.677 42.78 43.831-22.555zM243.266 179.247S131 162.667 94.463 253.099l23.061 8.361 25.426-9.585 5.532-31.543 15.474 41.047 26.544-12.91-.848-34.473 12.442 33.006 11.064-20.721 30.108-47.034z"/>
        <path fill="#4FB463" d="M357.667 55.017c-58-18.351-94.889 25.595-109.333 130.316l54-48-6.402-26 35.735 6.812 26-63.128z"/>
        <path fill="#4FB463" d="M78.023 58.507s150.718-33.534 177.676 107.305l-7.366 19.521-60.841-17.605 14.42-32.346-40.681 15.336-6.99-29.067-39.309-9.014-19.449-6.938-17.46-47.192z"/>
        <path fill="#62E07B" d="M154.241 121.651 188 100l-49.043 18.146zM161.231 150.718l40.681-15.336-45.504-4.721zM142.949 251.875l5.532-31.542L132.008 256zM190.499 248.469l-11.339 5.516 10.491-39.988zM337.237 223.733 296.109 193.3l58.515 32.86zM386.805 231.477l-44.677-42.78 67.49 31.041zM302.333 137.333l-15.057 13.385 8.656-39.385zM342 93h-39l45.082-14.711z"/>
        <path fill="#FFD161" d="M344.349 485.486c-2.39-1.015-58.937-24.861-95.053-24.861-36.099 0-93.641 23.835-96.073 24.85-1.386.579-2.031 1.701-1.581 2.751.45 1.05 1.886 1.774 3.519 1.774h187.225c1.628 0 3.06-.719 3.515-1.764.455-1.046-.179-2.166-1.552-2.75z"/>
        <circle fill="#B06A39" cx="295.777" cy="465.396" r="16.92"/>
    </g>
</svg>