<svg xmlns="http://www.w3.org/2000/svg" width="512" height="512" xml:space="preserve">
    <g>
        <path fill="#2D415A" d="M77.045 383.127h133.947v25.794H77.045zM300.902 383.127h133.947v25.794H300.902z"/>
        <path fill="#FFD161" d="M136.73 103.079h240.251v25.057H136.73z"/>
        <path fill="#FF6650" d="m113.706 166.09 142.241-48.64h2.211l141.847 48.64 40.24 209.062c1.344 6.994-3.712 13.596-10.814 14.122l-123.517 9.149c-6.739.499-12.543-4.698-12.78-11.451-.85-24.227-3.081-77.44-6.865-98.886-4.098-23.221-56.545-23.228-60.644 0-3.785 21.446-6.015 74.658-6.865 98.886-.237 6.753-6.041 11.95-12.78 11.451l-123.41-9.142c-7.14-.529-12.202-7.194-10.796-14.214l41.932-208.977z"/>
        <path fill="#FFD161" d="m405.903 198.462-6.231-32.372-.381-.13-143.677 53.192-142.312-52.708-6.523 32.507 148.835 51.153zM289.351 319.762l131.22-45.09-6.35-32.99-128.115 47.43c1.255 7.517 2.334 18.486 3.245 30.65zM225.121 289.109 98.126 242.074l-6.599 32.886 130.349 44.799c.912-12.165 1.991-23.135 3.245-30.65zM292.801 386.972c.165 4.702 3.032 8.643 7.032 10.439l135.408-46.529-6.42-33.354-136.752 50.628c.307 7.192.551 13.663.732 18.816zM218.427 386.972c.181-5.154.425-11.628.732-18.821L82.95 317.704l-6.675 33.265 135.124 46.44c3.997-1.796 6.863-5.736 7.028-10.437z"/>
        <path fill="#2D415A" d="m400.005 166.09-6.699-35.133a16.62 16.62 0 0 0-16.326-13.507H137.016a16.62 16.62 0 0 0-16.301 13.379l-7.009 35.26h286.299z"/>
        <g fill="none" stroke="#E3E3E3" stroke-width="7" stroke-linecap="round" stroke-linejoin="round" stroke-miterlimit="10">
            <path d="M256.341 138.085s-98.559-1.29-67.054 35.19 67.054-35.19 67.054-35.19z"/>
            <path d="M225.121 217.981s-20.01-65.341 31.219-79.896"/>
            <path d="M256.033 138.085s98.559-1.29 67.054 35.19-67.054-35.19-67.054-35.19z"/>
            <path d="M287.253 217.981s20.01-65.341-31.219-79.896"/>
        </g>
        <path fill="#FFF" d="M258.707 151.719h-1.257a5.96 5.96 0 0 1-5.959-5.959v-10.764a5.96 5.96 0 0 1 5.959-5.959h1.257a5.96 5.96 0 0 1 5.959 5.959v10.764a5.96 5.96 0 0 1-5.959 5.959z"/>
    </g>
</svg>