<svg xmlns="http://www.w3.org/2000/svg" width="36.858" height="47.998">
    <path d="M19.108 9.426c-5.849-6.858 7.472-14.2 17.75-5.358-.001 0-13.182 13.269-17.75 5.358z" fill="#79ccb8"/>
    <path d="M30.617 3.256c-.461.043-10.841 1.1-14.339 8.725a10.573 10.573 0 0 0-2.786-1.317l-.465 1.816a8.412 8.412 0 0 1 3.008 1.608.956.956 0 0 0 .1.09 6.753 6.753 0 0 1 2.327 5.667l1.873.085a8.511 8.511 0 0 0-2.542-6.73c2.843-7.03 12.9-8.065 13-8.075a.938.938 0 0 0-.175-1.868z" fill="#3daa9d"/>
    <path d="M30.49 32.03c-.3-3.1.026-9.994 6.1-8.6a1.356 1.356 0 0 0 .27.016c-4.21-8.3-17.459-3.561-17.459-3.561S1.219 12.8 0 29.661c-.123 26.285 19.4 16.5 19.4 16.5s12.392 7.117 17.3-6.661a.658.658 0 0 0-.109.006c-4.518.709-5.668-3.059-6.101-7.476z" fill="#db5743"/>
    <path d="M12.013 35.173c.317 4.129 2.09 7.651-1.041 8.742-2.986 1.04-6.072-3.315-7.154-8.606-.831-4.058.942-7.812 3.829-8.359s4.053 4.08 4.366 8.223z" fill="#f87670"/>
</svg>