<svg version="1.1" id="Layer_2" xmlns="http://www.w3.org/2000/svg" x="0" y="0" viewBox="0 0 80.3 80.3" style="enable-background:new 0 0 80.3 80.3" xml:space="preserve">
    <style></style>
    <circle cx="40.2" cy="40.2" r="40.2" style="fill:#0c2c48"/>
    <path d="M61.5 29.4c0-1-.8-1.8-1.8-1.8h-7.5v-1.1c0-6.2-5.1-11.3-11.3-11.3-6.2 0-11.3 5.1-11.3 11.3v1.1h-7.5c-1 0-1.8.8-1.8 1.8l-2.7 27.9c0 1 .8 1.8 1.8 1.8h43c1 0 1.8-.8 1.8-1.8l-2.7-27.9zm-28.3-3c0-4.2 3.4-7.7 7.7-7.7 4.2 0 7.7 3.4 7.7 7.7v1.1H33.2v-1.1z" style="fill:#f6a09c"/>
</svg>