<svg xmlns="http://www.w3.org/2000/svg" viewBox="0 0 512 512" style="enable-background:new 0 0 512 512" xml:space="preserve">
    <path style="fill:#b5ce00" d="M208.483 110.485c2.869 0 5.675.849 8.063 2.441l93.349 62.232v53.895l-107.789-53.895-7.958-47.75c-1.478-8.858 5.354-16.923 14.335-16.923z"/>
    <path style="fill:#f93100" d="m295.481 165.549 172.56 115.04a80.562 80.562 0 0 1 35.875 67.032H8.084v-1.193c0-42.008 7.222-83.703 21.351-123.264l28.233-79.053a18.188 18.188 0 0 1 31.329-5.244l16.572 20.715a70.227 70.227 0 0 0 88.201 17.922l28.443-15.36a71.152 71.152 0 0 1 73.268 3.405z"/>
    <path style="fill:#c00" d="M480.431 290.779a80.559 80.559 0 0 1 23.485 56.843H8.084v-1.193c0-42.008 7.222-83.703 21.351-123.264l28.233-79.053a18.19 18.19 0 0 1 31.329-5.244l16.572 20.715a70.15 70.15 0 0 0 11.766 11.577c48.214 71.793 166.927 122.567 305.738 122.567a555.7 555.7 0 0 0 57.358-2.948z"/>
    <path style="fill:#b5ce00" d="M503.916 346.678v1.824a5.383 5.383 0 0 1-1.731 3.968 186.695 186.695 0 0 1-126.126 49.046H71.311c-34.919 0-63.227-28.308-63.227-63.227 0-12.54 10.455-22.551 22.983-22.005l376.875 28.935a91.03 91.03 0 0 0 57.428-14.997 24.801 24.801 0 0 1 13.745-4.159c12.27 0 22.451 8.912 24.441 20.615h.36z"/>
    <path style="fill:#cdef00" d="m48.319 317.582 359.968 27.636a91.03 91.03 0 0 0 57.428-14.997 24.801 24.801 0 0 1 13.745-4.159c12.297 0 22.498 8.952 24.455 20.693a186.676 186.676 0 0 1-88.707 22.422H110.459c-30.944.002-56.679-22.233-62.14-51.595z"/>
    <path d="M511.961 345.129c-.639-22.744-10.019-44.173-25.777-60.024-.05-.051-.099-.101-.151-.15a88.5 88.5 0 0 0-13.508-11.093l-93.423-62.283-.033-.023-48.474-32.316-.028-.019-30.601-20.401c-.004-.003-.009-.005-.013-.009l-78.922-52.614a22.539 22.539 0 0 0-12.547-3.799c-6.662 0-12.952 2.915-17.258 7.998s-6.148 11.767-5.053 18.34l6.679 40.073-2.923 1.579a62.33 62.33 0 0 1-29.525 7.463c-13.895 0-27.085-4.572-37.814-12.829a7.918 7.918 0 0 0-.856-.648 62.603 62.603 0 0 1-9.852-9.844l-16.573-20.715a26.142 26.142 0 0 0-20.512-9.858c-11.073 0-21.016 7.006-24.74 17.435l-28.233 79.053C8.788 256.941 2.02 289.637.433 324.345.255 328.205 0 337.523 0 338.29c0 .658.061 2.813.077 3.019C1.666 379.234 33.002 409.6 71.312 409.6H376.06c49.761 0 97.133-18.768 133.393-52.847a8.088 8.088 0 0 0 2.548-5.891c-.001-1.956-.04-5.733-.04-5.733zm-309.84-219.048c-.427-2.566.719-4.379 1.441-5.231.722-.852 2.321-2.281 4.922-2.281 1.277 0 2.515.375 3.578 1.083l39.029 26.019a79.528 79.528 0 0 0-32.719 9.359l-10.481 5.66-5.77-34.609zm-4.511 58.536 28.443-15.359a63.25 63.25 0 0 1 29.962-7.573 62.867 62.867 0 0 1 34.967 10.582l8.38 5.587h-11.026a8.083 8.083 0 0 0-8.084 8.084 8.084 8.084 0 0 0 8.084 8.084h35.28l24.253 16.168h-16.416a8.083 8.083 0 0 0-8.084 8.084 8.084 8.084 0 0 0 8.084 8.084h40.668l24.253 16.168h-11.026a8.083 8.083 0 0 0-8.084 8.084 8.084 8.084 0 0 0 8.084 8.084h32.337c.835 0 1.641-.127 2.398-.362l39.179 26.12c-12 .788-24.108 1.19-36.188 1.19-66.153 0-129.704-11.675-183.786-33.761-38.584-15.757-70.385-35.94-93.694-59.26 4.83.921 9.783 1.4 14.81 1.4a78.538 78.538 0 0 0 37.206-9.404zM37.048 225.884l28.233-79.053a10.125 10.125 0 0 1 9.513-6.704c3.086 0 5.961 1.382 7.889 3.792l16.572 20.715a78.936 78.936 0 0 0 12.182 12.216c25.005 36.568 67.055 67.67 121.735 90.001 56.005 22.871 121.672 34.96 189.9 34.96 18.147 0 36.357-.883 54.201-2.604a72.617 72.617 0 0 1 13.052 20.742 32.743 32.743 0 0 0-11.211-1.97 32.787 32.787 0 0 0-18.227 5.513c-15.351 10.223-33.939 15.071-52.327 13.666L31.686 308.222a6.022 6.022 0 0 0-.268-.017c-4.873-.201-9.592.742-13.874 2.711 2.546-27.958 8.829-55.141 19.504-85.032zm339.011 167.548H71.311c-29.748 0-54.054-23.681-55.093-53.181.001-1.168.024-2.325.037-3.487a13.793 13.793 0 0 1 4.213-8.544c2.623-2.51 6.019-3.873 9.623-3.873.168 0 .337.003.506.009l376.726 28.923c21.982 1.692 44.184-4.111 62.528-16.328a16.672 16.672 0 0 1 9.264-2.803c8.104 0 14.878 5.796 16.397 13.46-32.859 29.579-75.124 45.824-119.453 45.824z"/>
</svg>