<svg xmlns="http://www.w3.org/2000/svg" width="512" height="512" xml:space="preserve">
    <g>
        <path fill="#1B2736" d="m74 254.024 53.119-116.656c2.097-4.605 8.238-5.528 11.596-1.743l20.087 22.643a8.13 8.13 0 0 1 2.048 5.396c0 4.142-4.817 6.419-8.018 3.79l-12.438-10.217a3.163 3.163 0 0 0-4.908 1.183L88.49 266.538 74 254.024z"/>
        <path fill="#1B2736" d="m74 254.024 53.119-116.656c2.097-4.605 8.238-5.528 11.596-1.743l20.087 22.643a8.13 8.13 0 0 1 2.048 5.396c0 4.142-4.817 6.419-8.018 3.79l-12.438-10.217a3.163 3.163 0 0 0-4.908 1.183L88.49 266.538 74 254.024zM438 254.024l-53.119-116.656c-2.097-4.605-8.238-5.528-11.596-1.743l-20.087 22.643a8.13 8.13 0 0 0-2.048 5.396c0 4.142 4.817 6.419 8.018 3.79l12.438-10.217a3.163 3.163 0 0 1 4.908 1.183l46.996 108.119L438 254.024z"/>
        <path fill="#2D415A" d="M74 250.424s22.238-13.141 57.112-12.636c34.874.506 78.846-1.011 107.654 20.722 0 0 8.087 5.054 17.185 4.044 8.087 1.011 17.185-4.044 17.185-4.044 28.809-21.733 72.829-20.216 107.703-20.722 34.874-.506 57.161 12.636 57.161 12.636v22.744l-9.146 16.679s.784-.027.481 3.033c-9.603 97.041-41.963 85.416-98.064 85.416s-61.161-80.362-63.183-86.427c-2.022-6.065-12.133-8.086-12.133-8.086s-10.11 2.021-12.132 8.086c-2.022 6.065-7.076 86.427-63.178 86.427s-88.449 11.625-98.052-85.416c-.303-3.059.505-3.033.505-3.033L74 273.168v-22.744z"/>
        <path fill="#2D415A" d="M438 250.424s-22.287-13.141-57.161-12.636c-34.874.506-78.87-1.011-107.679 20.722 0 0-8.099 5.054-17.197 4.044-8.087 1.011-17.191-4.044-17.191-4.044-28.809-21.733-72.784-20.216-107.658-20.722C96.241 237.282 74 250.424 74 250.424v22.744l9.098 16.679s-.808-.027-.506 3.033c9.603 97.041 41.95 85.416 98.052 85.416s61.155-80.362 63.177-86.427c2.022-6.065 12.13-8.086 12.13-8.086s10.108 2.021 12.13 8.086c2.022 6.065 7.076 86.427 63.177 86.427s88.449 11.625 98.052-85.416c.303-3.059-.457-3.033-.457-3.033L438 273.168v-22.744z"/>
        <ellipse fill="#FFF" cx="91.656" cy="261.038" rx="11.591" ry="4.549"/>
        <ellipse fill="#FFF" cx="420.247" cy="261.038" rx="11.591" ry="4.549"/>
        <path fill="#FFD161" d="M139.705 302.987c17.832 20.475 61.98 9.968 90.448.224.62-9.072-.24-17.371-2-23.474-7.581-26.281-69.242-25.776-69.242-25.776-66.715-3.033-61.156 33.358-61.156 33.358s-.277 2.161-.446 5.727c14.165-4.125 30.272-3.978 42.396 9.941z"/>
        <path fill="#FFB561" d="M139.705 302.987c-12.123-13.919-28.231-14.066-42.396-9.941-.429 9.091-.128 27.494 7.376 43.854 23.549 9.468 80.632 4.202 115.807-.319 6.049-10.661 8.922-22.561 9.661-33.37-28.468 9.745-72.616 20.251-90.448-.224z"/>
        <path fill="#FF6650" d="M104.685 336.9c7.239 15.782 21.177 29.631 47.655 31.286 36.67 2.292 57.411-12.676 68.152-31.605-35.175 4.521-92.258 9.788-115.807.319z"/>
        <path fill="#FFD161" d="M372.19 302.987c-17.832 20.475-61.98 9.968-90.448.224-.62-9.072.24-17.371 2-23.474 7.581-26.281 69.242-25.776 69.242-25.776 66.715-3.033 61.156 33.358 61.156 33.358s.277 2.161.446 5.727c-14.165-4.125-30.272-3.978-42.396 9.941z"/>
        <path fill="#FFB561" d="M372.19 302.987c12.123-13.919 28.231-14.066 42.396-9.941.429 9.091.128 27.494-7.376 43.854-23.549 9.468-80.632 4.202-115.807-.319-6.049-10.661-8.922-22.561-9.661-33.37 28.468 9.745 72.616 20.251 90.448-.224z"/>
        <path fill="#FF6650" d="M407.21 336.9c-7.238 15.782-21.177 29.631-47.655 31.286-36.67 2.292-57.411-12.676-68.152-31.605 35.175 4.521 92.258 9.788 115.807.319z"/>
    </g>
</svg>