<svg xmlns="http://www.w3.org/2000/svg" width="512" height="512" xml:space="preserve">
    <g>
        <path fill="#8A532D" d="M80.854 198.896a184.016 184.016 0 0 1 9.28-24.809H15.276v163.826h80.542C73.393 296.886 66.632 247.3 80.854 198.896zM496.724 174.087h-74.875c17.8 38.664 22.239 83.687 9.297 127.733a183.274 183.274 0 0 1-14.935 36.093h80.513V174.087z"/>
        <path fill="#6E4224" d="M203.247 174.087H90.134a183.881 183.881 0 0 0-9.28 24.809c-14.222 48.404-7.461 97.99 14.964 139.017h107.429V174.087zM421.849 174.087H308.753v163.826h107.458a183.163 183.163 0 0 0 14.935-36.093c12.942-44.046 8.503-89.069-9.297-127.733z"/>
        <circle fill="#A3A3A3" cx="256" cy="256" r="167.619"/>
        <circle fill="gray" cx="256" cy="256" r="145.782"/>
        <circle fill="#E3E3E3" cx="256" cy="256" r="131.962"/>
        <circle fill="#FFF" cx="265.053" cy="244.861" r="118.679"/>
        <circle fill="none" stroke="#1B2736" stroke-width="6" stroke-linecap="round" stroke-linejoin="round" stroke-miterlimit="10" cx="256" cy="256" r="124.271"/>
        <circle fill="#1B2736" cx="256" cy="256" r="25.536"/>
        <path fill="#FF6650" d="M262.967 261.375c-.362 0-.731-.055-1.094-.172l-78.417-25.105a3.586 3.586 0 1 1 2.187-6.831l78.417 25.105a3.586 3.586 0 0 1-1.093 7.003z"/>
        <path fill="#2D415A" d="M331.129 303.461c-1.546 0-3.117-.334-4.606-1.042l-73.549-34.911c-5.368-2.548-7.654-8.965-5.106-14.333 2.549-5.369 8.968-7.656 14.333-5.106l73.549 34.911c5.368 2.548 7.654 8.965 5.106 14.333a10.762 10.762 0 0 1-9.727 6.148z"/>
        <path fill="#2D415A" d="M257.5 264.064c-3.466 0-6.5-2.81-6.5-6.276v-98.626c0-3.466 3.034-6.276 6.5-6.276s6.5 2.81 6.5 6.276v98.626c0 3.466-3.034 6.276-6.5 6.276z"/>
        <g fill="none" stroke="#1B2736" stroke-width="8" stroke-linecap="round" stroke-linejoin="round" stroke-miterlimit="10">
            <path d="M257 147.452v-13M257 379.452v-14M366 257.452h13M135 257.452h13"/>
        </g>
        <g fill="none" stroke="#1B2736" stroke-width="4" stroke-linecap="round" stroke-linejoin="round" stroke-miterlimit="10">
            <path d="m203.058 161.876-6.724-11.647M318.719 362.208l-6.724-11.648M351.704 202.362l11.648-6.724M151.373 318.024l11.647-6.725"/>
        </g>
        <g fill="none" stroke="#1B2736" stroke-width="4" stroke-linecap="round" stroke-linejoin="round" stroke-miterlimit="10">
            <path d="m163.162 201.668-11.647-6.724M363.494 317.329l-11.648-6.724M312.137 162.407l6.724-11.647M196.476 362.738l6.724-11.647"/>
        </g>
        <circle fill="#FFB561" cx="196.809" cy="291.879" r="29.632"/>
        <circle fill="#FFD161" cx="198.842" cy="289.378" r="26.649"/>
        <path fill="#2D415A" d="M213.679 302.537a2.4 2.4 0 0 1-1.034-.234l-16.515-7.839a2.417 2.417 0 0 1 2.072-4.366l16.515 7.839a2.417 2.417 0 0 1-1.038 4.6z"/>
        <path fill="#2D415A" d="M197 293.69c-.778 0-1-.631-1-1.409v-22.146c0-.778.222-1.409 1-1.409s1 .631 1 1.409v22.146c0 .778-.222 1.409-1 1.409z"/>
        <g fill="none" stroke="#1B2736" stroke-width="4" stroke-linecap="round" stroke-linejoin="round" stroke-miterlimit="10">
            <path d="M197 267.452v-2M197 319.452v-2M222 292.452h2M170 292.452h2"/>
        </g>
        <g>
            <circle fill="#CF5341" cx="311.574" cy="211.185" r="29.632"/>
            <circle fill="#FF6650" cx="309.541" cy="208.684" r="26.649"/>
            <path fill="#2D415A" d="M294.704 221.843a2.4 2.4 0 0 0 1.034-.234l16.515-7.839a2.417 2.417 0 0 0-2.072-4.366l-16.515 7.839a2.417 2.417 0 0 0 1.038 4.6z"/>
            <path fill="#2D415A" d="M310.5 212.996c.778 0 1.5-.631 1.5-1.409v-22.146c0-.778-.722-1.409-1.5-1.409s-1.5.631-1.5 1.409v22.146c0 .778.722 1.409 1.5 1.409z"/>
            <g fill="none" stroke="#1B2736" stroke-width="4" stroke-linecap="round" stroke-linejoin="round" stroke-miterlimit="10">
                <path d="M311 186.452v-3M311 238.452v-3M287 211.452h-3M339 211.452h-3"/>
            </g>
        </g>
    </g>
</svg>