<svg xmlns="http://www.w3.org/2000/svg" width="512" height="512" xml:space="preserve">
    <g>
        <path fill="#2D415A" d="m191.124 120.353 102.366 291.94-12.268 4.301-102.366-291.94z"/>
        <path fill="#1B2736" d="m191.134 120.352-12.268 4.303 20.535 58.56.407-.162a57.543 57.543 0 0 1 12.141-3.341l-20.815-59.36z"/>
        <path fill="#FFD161" d="M351.452 418.938c-1.598-1.015-39.409-24.861-63.559-24.861-24.138 0-62.615 23.835-64.242 24.85a2.45 2.45 0 0 0 1.296 4.525H350.14a2.447 2.447 0 0 0 1.312-4.514z"/>
        <path fill="#8A532D" d="M111.044 424.598c-2 0-4.024-.527-5.86-1.635-5.377-3.243-7.107-10.23-3.864-15.607l36.066-59.799c3.243-5.377 10.231-7.106 15.606-3.864 5.377 3.243 7.107 10.23 3.864 15.607l-36.066 59.799a11.365 11.365 0 0 1-9.746 5.499z"/>
        <path fill="#6E4224" d="M122.2 372.737h26.552l8.104-13.437c1.757-2.912 2.043-6.294 1.092-9.301h-22.034L122.2 372.737z"/>
        <path fill="#8A532D" d="M372.154 424.598a11.36 11.36 0 0 1-9.745-5.499L326.342 359.3c-3.243-5.377-1.513-12.363 3.864-15.607 5.374-3.24 12.363-1.513 15.606 3.864l36.066 59.799c3.243 5.377 1.513 12.363-3.864 15.607a11.32 11.32 0 0 1-5.86 1.635z"/>
        <path fill="#6E4224" d="M345.811 347.557a11.312 11.312 0 0 0-4.926-4.43l-5.541 6.872H325.25c-.951 3.006-.665 6.388 1.092 9.301l8.104 13.437h6.335a11.37 11.37 0 0 0 8.85-4.233l5.043-6.253-8.863-14.694z"/>
        <path fill="#8A532D" d="M340.781 364.452h-218.75c-6.279 0-11.369-4.721-11.369-11s5.09-11 11.369-11h213.313l86.753-107.729c3.941-4.887 11.099-5.728 15.986-1.787a11.324 11.324 0 0 1 1.714 15.949L349.631 360.46c-2.159 2.677-5.412 3.992-8.85 3.992z"/>
        <path fill="#E3E3E3" d="M329.418 331.316v-8.877c0-6.283-5.094-11.377-11.377-11.377H130.272c-6.283 0-11.377 5.094-11.377 11.377v8.877c0 .487.041.963.1 1.434h210.323c.06-.471.1-.947.1-1.434z"/>
        <path fill="#A6A6A6" d="M118.995 332.75c.706 5.605 5.48 9.943 11.277 9.943h187.769c5.797 0 10.571-4.338 11.277-9.943H118.995z"/>
        <path fill="#E3E3E3" d="M412.173 216.009c-4.871-3.969-12.038-3.237-16.006 1.634l-68.896 84.564c-3.969 4.871-3.237 12.038 1.634 16.006l6.882 5.607c.14.114.287.21.431.316L418.63 221.27l-6.457-5.261z"/>
        <path fill="#A6A6A6" d="m419.056 221.617-.426-.347-82.411 102.868c4.855 3.594 11.721 2.781 15.576-1.95l68.896-84.564c3.968-4.872 3.236-12.039-1.635-16.007z"/>
        <path fill="#FF6650" d="M164.098 76.536c-43.071 17.179-75.617 51.048-94.119 97.942-13.873 35.162-15.008 64.931-15.048 66.18a6.84 6.84 0 0 0 13.534 1.613c.227-1.049 6.046-26.52 35.169-38.139 28.297-11.283 46.483 3.957 47.244 4.612a6.833 6.833 0 0 0 5.008 1.629c-24.884-91.03 8.212-133.837 8.212-133.837z"/>
        <path fill="#FF6650" d="M355.525 120.752c-.891-.88-22.198-21.688-56.365-37.683-45.579-21.341-92.28-23.603-135.062-6.533 52.836-1.249 83.273 52.995 98.075 90.958.969-1.067 1.631-2.405 1.78-3.846.103-.995 2.835-24.527 31.123-35.81 29.128-11.619 50.847 2.817 51.756 3.436a6.858 6.858 0 0 0 6.408.708 6.856 6.856 0 0 0 4.175-5.003 6.838 6.838 0 0 0-1.89-6.227z"/>
        <path fill="#FFD161" d="M164.098 76.536s-33.097 42.807-8.212 133.836a6.753 6.753 0 0 0 1.966-.451c1.841-.726 3.447-2.282 4.106-4.148.414-1.169 10.446-28.789 37.117-39.428l.733-.292c26.658-10.633 52.96 2.492 54.065 3.057a6.825 6.825 0 0 0 5.618.267 7.234 7.234 0 0 0 2.682-1.883c-14.801-37.963-45.238-92.207-98.075-90.958z"/>
    </g>
</svg>