<svg xmlns="http://www.w3.org/2000/svg" width="512" height="512" xml:space="preserve">
    <g>
        <path fill="#73B4B2" d="m221.4 221.168 5.265-42.714-.2-.043c.027-.12.07-.234.096-.354 4.209-19.418-8.119-38.572-27.537-42.781s-38.571 8.12-42.78 27.538c-.026.12-.035.241-.06.362l-.018-.004-12.631 40.451a44.106 44.106 0 0 0-8.589 18.15c-5.183 23.91 9.998 47.494 33.908 52.677 23.91 5.183 47.495-9.998 52.678-33.908a44.126 44.126 0 0 0-.132-19.374zM290.6 221.168l-5.265-42.714.2-.043c-.027-.12-.07-.234-.096-.354-4.209-19.418 8.119-38.572 27.537-42.781s38.571 8.12 42.78 27.538c.026.12.035.241.06.362l.018-.004 12.631 40.451a44.106 44.106 0 0 1 8.589 18.15c5.183 23.91-9.998 47.494-33.908 52.677-23.91 5.183-47.495-9.998-52.678-33.908a44.126 44.126 0 0 1 .132-19.374z"/>
        <path fill="#629997" d="M292.555 205.371h-73.906l5-38.639h63.906z"/>
        <path fill="#73B4B2" d="M218.649 205.371h73.906v22.009h-73.906z"/>
        <path fill="#279685" d="m243.197 287.355-5.032-53.005c0-29.426-23.855-53.281-53.281-53.281-24.185 0-52.594 16.119-59.101 38.196l-15.701 30.558 34.924 9.847c9.761 11.013 24.004 17.961 39.878 17.961a53.26 53.26 0 0 0 15.589-2.323l42.724 12.047z"/>
        <circle fill="#2FB49F" cx="167.5" cy="300.967" r="76.898"/>
        <circle fill="#2D415A" cx="167.5" cy="300.967" r="59.612"/>
        <circle fill="#5C84B8" cx="165.848" cy="302.178" r="37.479"/>
        <circle fill="#2D415A" cx="165.848" cy="302.178" r="23.817"/>
        <circle fill="#5C84B8" cx="144.904" cy="255.568" r="7.898"/>
        <circle fill="#5C84B8" cx="125.484" cy="272.962" r="5.399"/>
        <path fill="#279685" d="m268.803 287.355 5.032-53.005c0-29.426 23.855-53.281 53.281-53.281 24.185 0 52.594 16.119 59.101 38.196l15.701 30.558-34.924 9.847c-9.761 11.013-24.004 17.961-39.878 17.961a53.26 53.26 0 0 1-15.589-2.323l-42.724 12.047z"/>
        <circle fill="#2FB49F" cx="344.5" cy="300.967" r="76.898"/>
        <circle fill="#73B4B2" cx="255.831" cy="215.941" r="12.729"/>
        <circle fill="#629997" cx="255.831" cy="172.941" r="12.729"/>
        <circle fill="#5C84B8" cx="255.831" cy="215.941" r="9.879"/>
        <circle fill="#2D415A" cx="255.831" cy="218.941" r="9.879"/>
        <circle fill="#2D415A" cx="344.5" cy="300.967" r="59.612"/>
        <circle fill="#5C84B8" cx="342.848" cy="302.178" r="37.479"/>
        <circle fill="#2D415A" cx="342.848" cy="302.178" r="23.817"/>
        <circle fill="#5C84B8" cx="321.904" cy="255.568" r="7.898"/>
        <circle fill="#5C84B8" cx="302.484" cy="272.962" r="5.399"/>
    </g>
</svg>