<svg xmlns="http://www.w3.org/2000/svg" width="512" height="512" xml:space="preserve">
    <g>
        <path fill="#8A532D" d="M387.613 339.132 171.442 463.939c-9.73 5.618-22.171 2.284-27.789-7.446l-22.697-39.312c-5.618-9.73-2.284-22.171 7.446-27.789l216.171-124.806c9.73-5.618 22.171-2.284 27.789 7.446l22.697 39.312c5.617 9.729 2.284 22.171-7.446 27.788z"/>
        <path fill="#6E4224" d="m137.124 445.899 6.22 10.773c5.618 9.73 18.472 13.065 28.202 7.448l216.171-124.806c9.73-5.617 12.663-18.068 7.045-27.798l-6.22-10.773-251.418 145.156z"/>
        <path fill="#6E4224" d="M190.107 377.849c-5.618-9.73-18.059-13.064-27.789-7.446l-24.445 14.113c-9.73 5.618-13.064 18.059-7.446 27.789l22.544 39.047c5.618 9.73 18.059 13.064 27.789 7.446l24.445-14.113c9.73-5.618 13.064-18.059 7.446-27.789l-22.544-39.047z"/>
        <path fill="#D98246" d="M176.774 385.547c-5.618-9.73-18.059-13.064-27.789-7.446l-24.445 14.113c-9.73 5.618-13.064 18.059-7.446 27.789l22.544 39.047c5.618 9.73 18.059 13.064 27.789 7.446l24.445-14.113c9.73-5.618 13.064-18.059 7.446-27.789l-22.544-39.047z"/>
        <path fill="none" stroke="#8A532D" stroke-width="4" stroke-linecap="round" stroke-miterlimit="10" d="M168.912 401.253c-3.227-5.59-10.374-7.505-15.964-4.278l-14.043 8.108c-5.59 3.227-7.505 10.374-4.277 15.964l12.873 22.296c3.227 5.59 10.374 7.505 15.964 4.278l14.043-8.108c5.59-3.227 7.505-10.374 4.277-15.964l-12.873-22.296z"/>
        <path fill="none" stroke="#6E4224" stroke-width="4" stroke-linecap="round" stroke-linejoin="round" stroke-miterlimit="10" d="m198.086 372.608 86.981-50.218M305.062 299.841l35.554-20.527M313.86 315.078l32.379-18.694M235.224 340.162l31.745-18.328"/>
        <g>
            <path fill="#8A532D" d="m124.387 337.666 216.171 124.806c9.73 5.618 22.171 2.284 27.789-7.446l22.697-39.312c5.618-9.73 2.284-22.171-7.446-27.789L167.427 263.119c-9.73-5.618-22.171-2.284-27.789 7.446l-22.697 39.312c-5.617 9.73-2.284 22.172 7.446 27.789z"/>
            <path fill="#6E4224" d="m374.876 444.432-6.22 10.773c-5.618 9.73-18.472 13.065-28.202 7.447L124.283 337.846c-9.73-5.617-12.663-18.068-7.045-27.798l6.22-10.773 251.418 145.157z"/>
            <path fill="#6E4224" d="M321.893 376.383c5.618-9.73 18.059-13.064 27.789-7.446l24.445 14.113c9.73 5.618 13.064 18.059 7.446 27.789l-22.544 39.047c-5.618 9.73-18.059 13.064-27.789 7.446l-24.445-14.113c-9.73-5.618-13.064-18.059-7.446-27.789l22.544-39.047z"/>
            <path fill="#D98246" d="M335.226 384.081c5.618-9.73 18.059-13.064 27.789-7.446l24.445 14.113c9.73 5.618 13.064 18.059 7.446 27.789l-22.544 39.047c-5.618 9.73-18.059 13.064-27.789 7.446l-24.445-14.113c-9.73-5.618-13.064-18.059-7.446-27.789l22.544-39.047z"/>
            <path fill="none" stroke="#8A532D" stroke-width="4" stroke-linecap="round" stroke-miterlimit="10" d="M364.203 441.706c-3.227 5.59-10.374 7.505-15.964 4.278l-14.043-8.108c-5.59-3.227-7.505-10.374-4.277-15.964l12.873-22.296c3.227-5.59 10.374-7.505 15.964-4.278l14.043 8.108c5.59 3.227 7.505 10.374 4.277 15.964l-12.873 22.296z"/>
            <path fill="none" stroke="#6E4224" stroke-width="4" stroke-linecap="round" stroke-linejoin="round" stroke-miterlimit="10" d="m313.617 370.971-24.126-13.929M203.074 302.916l-35.555-20.528M197.843 313.441l-32.379-18.695M306.319 355.753l-39.998-23.094M298.713 389.455l-33.65-19.428"/>
            <circle fill="none" stroke="#6E4224" stroke-width="4" stroke-linecap="round" stroke-linejoin="round" stroke-miterlimit="10" cx="219.727" cy="326.075" r="14.662"/>
        </g>
        <g>
            <path fill="#FF6650" d="M354.189 192.571c0 51.647-41.868 93.516-93.516 93.516s-93.516-41.869-93.516-93.516 93.516-149.796 93.516-149.796 93.516 98.149 93.516 149.796z"/>
            <path fill="#FF9B29" d="M313.842 203.755c0 29.365-23.805 53.169-53.17 53.169-29.365 0-53.169-23.805-53.169-53.169s53.169-85.168 53.169-85.168 53.17 55.803 53.17 85.168z"/>
            <path fill="#FFD161" d="M290.868 208.65c0 16.58-13.441 30.02-30.02 30.02s-30.02-13.441-30.02-30.02 30.02-48.087 30.02-48.087 30.02 31.507 30.02 48.087zM330.224 87.998c0 10.645-8.63 19.275-19.275 19.275s-19.275-8.63-19.275-19.275 19.275-30.875 19.275-30.875 19.275 20.229 19.275 30.875zM196.361 146.816c0 10.645-8.63 19.275-19.275 19.275s-19.275-8.63-19.275-19.275 19.275-30.875 19.275-30.875 19.275 20.23 19.275 30.875z"/>
        </g>
    </g>
</svg>