<svg xmlns="http://www.w3.org/2000/svg" width="512" height="512" xml:space="preserve">
    <g>
        <path fill="#FFD161" d="m152.692 413.85-18.985 46.602h19.062l22.572-36.908zM359.308 413.85l18.985 46.602H359.23l-22.571-36.908z"/>
        <path fill="#1B2736" d="M246.949 59.818h18.102v39h-18.102z"/>
        <path fill="#FFD161" d="M271.038 70.818h-30.075c-5.423 0-9.818-4.396-9.818-9.818 0-5.423 4.396-9.818 9.818-9.818h30.075c5.423 0 9.818 4.396 9.818 9.818 0 5.423-4.396 9.818-9.818 9.818z"/>
        <path fill="#1B2736" d="m383.433 86.706 13.57 10.652-30.865 39.324-13.57-10.651z"/>
        <path fill="#FFD161" d="M424.913 87.656 386.25 57.311c-12.478-9.793-30.532-7.617-40.325 4.86l-9.266 11.806 83.849 65.81 9.266-11.806c9.793-12.477 7.617-30.531-4.861-40.325z"/>
        <path fill="#1B2736" d="m159.425 126.042-13.57 10.651-30.866-39.324 13.57-10.652z"/>
        <path fill="#FFD161" d="M87.087 87.656 125.75 57.31c12.478-9.793 30.532-7.617 40.325 4.86l9.266 11.806-83.849 65.81-9.266-11.806c-9.793-12.476-7.617-30.53 4.861-40.324z"/>
        <circle fill="#2D415A" cx="256" cy="266.825" r="186.949"/>
        <circle fill="#1B2736" cx="256" cy="266.825" r="162.594"/>
        <circle fill="#E3E3E3" cx="256" cy="266.825" r="147.181"/>
        <circle fill="#FFF" cx="266.097" cy="254.401" r="132.365"/>
        <circle fill="#1B2736" cx="256" cy="266.825" r="28.481"/>
        <path fill="#FF6650" d="M263.77 272.819c-.404 0-.815-.062-1.221-.191l-87.46-28a4 4 0 1 1 2.439-7.619l87.46 28a4 4 0 0 1-1.218 7.81z"/>
        <path fill="#2D415A" d="M339.793 319.759c-1.725 0-3.477-.373-5.138-1.162l-82.031-38.938c-5.987-2.842-8.537-9.999-5.695-15.986 2.843-5.988 10.002-8.539 15.986-5.695l82.031 38.938c5.987 2.842 8.537 9.999 5.695 15.986a12 12 0 0 1-10.848 6.857z"/>
        <path fill="#2D415A" d="M258 275.818a7 7 0 0 1-7-7v-110a7 7 0 1 1 14 0v110a7 7 0 0 1-7 7z"/>
        <g fill="none" stroke="#1B2736" stroke-width="12" stroke-linecap="round" stroke-linejoin="round" stroke-miterlimit="10">
            <path d="M256 145.452v-15M256 403.452v-15M379 269.452h15M121 269.452h15"/>
        </g>
    </g>
</svg>