<svg xmlns="http://www.w3.org/2000/svg" viewBox="0 0 256 256" xml:space="preserve">
    <path fill="#72C3E9" d="m229.39 174.478 1.58 50.22h-74.19c-1.51-12.19-10.51-20.11-20.18-20.11h-5.68v-7.62c7.42-3.54 12.48-10.35 13.87-18.17.25-1.42.38-2.89.38-4.37v-24.2c0-1.91-.32-3.74-.92-5.44-2.14-6.02-7.57-10.37-14.12-10.93a13.56 13.56 0 0 1 5.54-3.89c.28-.1.57-.2.86-.29l26.43-8.04h.01c12.42 13.26 33.22 13.19 45.72 0l26.44 8.04c4.95 1.51 8.63 5.68 9.53 10.78l5.93 34.02h-21.2z"/>
    <path fill="#FFB69F" d="M247.2 224.698h-16.23l-1.58-50.22h16.6z"/>
    <path fill="#FC5D3D" d="M109.55 196.968v7.62h-5.69c-9.41 0-18.52 7.54-20.23 20.11H18.07l6.29-26.66-3.14-24.21H7.09l.41-30.89a12.81 12.81 0 0 1 7.94-11.69l20.15-8.28c0 15.33 12.06 23.03 24.17 23.11 12.12-.08 24.17-7.78 24.17-23.11l18.91 7.77 1.24.51c1.64.68 3.08 1.68 4.25 2.91-5.65 1.18-10.22 5.26-12.11 10.62a16.38 16.38 0 0 0-.93 5.45v24.2c0 1.49.13 2.95.39 4.37 1.4 7.96 6.61 14.72 13.87 18.17z"/>
    <path fill="#4AA4C8" d="m171.43 166.518-2.05 3.2a4.982 4.982 0 0 1-6.41 1.79c-.31-.15-1.51-.77-3.29-2.13.24.91.36 1.87.36 2.85 0 6.32-5.08 11.47-11.37 11.57a30.077 30.077 0 0 1-12.21 15.79h.14c12.81 0 23.39 10.95 25.14 25.11h-4.96c-1.51-12.19-10.51-20.11-20.18-20.11h-5.68v-7.62c7.42-3.54 12.48-10.35 13.87-18.17.25-1.42.38-2.89.38-4.37v-24.2c0-1.91-.32-3.74-.92-5.44-2.14-6.02-7.57-10.37-14.12-10.93a13.56 13.56 0 0 1 5.54-3.89 21.44 21.44 0 0 1 10.41 7.68c4.48-1.19 9.25.81 11.48 4.93 1.16.12 2.32.29 3.48.48 10.83 1.87 16.3 14.18 10.39 23.46z"/>
    <path fill="#FFB69F" d="M83.93 122.968c0 15.33-12.05 23.03-24.17 23.11-12.11-.08-24.17-7.78-24.17-23.11 4.69-1.89 3.01-1.21 6.27-2.55a7.872 7.872 0 0 0 4.89-7.28v-5.73c8.276 4.306 17.868 4.19 26.02-.05h.01v5.78c0 3.19 1.94 6.08 4.89 7.28 3.43 1.41 1.55.64 6.26 2.55z"/>
    <path fill="#B64F33" d="M95.68 178.798c-.26-1.42-.39-2.88-.39-4.37v-24.2c0-1.87.32-3.73.93-5.45 1.89-5.36 6.46-9.44 12.11-10.62a12.427 12.427 0 0 0-4.25-2.91l-1.24-.51a21.47 21.47 0 0 0-8.44 6.9c-4.39-1.16-9.21.75-11.49 4.94-1.16.12-2.33.29-3.5.48-10.82 1.87-16.28 14.19-10.37 23.46l2.04 3.2a4.997 4.997 0 0 0 6.41 1.79c.911-.398 2.501-1.526 3.3-2.13-.24.91-.36 1.87-.36 2.85 0 6.31 5.08 11.46 11.36 11.57a30.077 30.077 0 0 0 12.21 15.79h-.14c-12.67 0-23.26 10.98-25.18 25.11h4.95c1.71-12.57 10.82-20.11 20.23-20.11h5.69v-7.62c-7.26-3.45-12.47-10.21-13.87-18.17z"/>
    <path fill="#C5E5FE" d="M219.248 221.535a2.5 2.5 0 0 1-2.497-2.419l-.226-6.997a2.5 2.5 0 0 1 2.418-2.579l.083-.001a2.5 2.5 0 0 1 2.497 2.419l.226 6.997a2.5 2.5 0 0 1-2.419 2.579l-.082.001zm-.548-16.991a2.5 2.5 0 0 1-2.497-2.419l-1.582-49.056a2.5 2.5 0 0 1 2.418-2.579l.083-.001a2.5 2.5 0 0 1 2.497 2.419l1.582 49.056a2.5 2.5 0 0 1-2.418 2.579l-.083.001z"/>
    <path fill="#FFCBC3" d="M31.35 220.596a2.499 2.499 0 0 1-1.86-3.006l3.363-14.286c-3.03-23.857-4.14-30.113-4.429-35.803a2.5 2.5 0 0 1 2.37-2.623 2.49 2.49 0 0 1 2.624 2.37c.276 5.451 1.41 11.885 4.452 35.875a2.52 2.52 0 0 1-.047.887l-3.467 14.725a2.499 2.499 0 0 1-3.006 1.861zm-.419-60.707a2.499 2.499 0 0 1-2.407-2.589c.1-2.763.185-5.04.277-7.98a2.5 2.5 0 1 1 4.998.157c-.102 3.215-.192 5.617-.279 8.005a2.5 2.5 0 0 1-2.589 2.407z"/>
    <path fill="#7D7B79" d="M98.35 69.898c0 18.86.04 28.8-10.18 45.21-2.8-5.95-15.39-7.75-15.39-7.75 8.89-4.61 15.39-13.81 15.39-25.23v-3.34c0-6.3-4.56-11.67-10.77-12.71l-40.43-6.71a4.818 4.818 0 0 0-5.61 4.75v18.01c0 11.13 6.37 20.58 15.38 25.27-.41.07-12.76 2.13-15.38 7.71-10.2-16.38-10.18-26.29-10.18-45.21 0-21.18 16.95-38.35 38.58-38.59 21.65.25 38.59 17.43 38.59 38.59z"/>
    <path fill="#FFB69F" d="M88.17 78.788v3.34c0 11.42-6.5 20.62-15.39 25.23h-.01c-8.142 4.235-17.734 4.361-26.02.05v-.01h-.01c-9.01-4.69-15.38-14.14-15.38-25.27v-18.01c0-2.97 2.67-5.24 5.61-4.75l40.43 6.71c6.21 1.04 10.77 6.41 10.77 12.71z"/>
    <path fill="#FFB69F" d="M46.75 107.398v.01c-.01 0-.01-.01-.01-.01h.01zM145.17 160.418v14.01c0 1.48-.13 2.95-.38 4.37-1.39 7.82-6.45 14.63-13.87 18.17-7.2 3.32-14.96 3.07-21.37 0-7.26-3.45-12.47-10.21-13.87-18.17-.26-1.42-.39-2.88-.39-4.37v-13.98c9.41 0 16.57-7.74 16.57-16.56v-4.92c1.15 14.64 15.65 21.53 29.88 21.53 1.18.02 2.32-.01 3.43-.08zM24.36 198.038l-6.29 26.66H2.91l4.06-41.32.12-9.55h14.13zM213.69 60.068v23.47c0 1.67-.13 3.3-.43 4.89v.01c-1.36 7.84-5.95 14.45-12.25 18.58-9.23 6.2-21.76 6.16-30.9.01a27.978 27.978 0 0 1-12.23-18.59c-.3-1.57-.44-3.22-.44-4.9v-23.47h56.25z"/>
    <path fill="#FFB69F" d="M208.69 121.638c-12.5 13.19-33.3 13.26-45.72 0l7.14-2.17v-12.44c9.14 6.15 21.67 6.19 30.9-.01v12.45l7.68 2.17z"/>
    <path fill="#7C7B7A" d="m215.126 34.787-5.093-3.486a9.653 9.653 0 0 1-9.481 7.854H170.21c-6.971 0-12.765 5.643-12.765 12.768l-.003 8.145h56.25l3.519-3.571c6.243-6.306 5.19-16.749-2.085-21.71z"/>
    <path fill="#FFB69F" d="M157.88 88.438h-3.28c-4.48 0-8.09-3.63-8.09-8.1 0-4.46 3.6-8.09 8.09-8.09h2.84v11.29c0 1.68.14 3.33.44 4.9zM224.62 80.348c0 4.45-3.6 8.08-8.09 8.08h-3.27c.3-1.59.43-3.22.43-4.89v-11.29h2.84c4.48 0 8.09 3.62 8.09 8.1z"/>
    <path fill="#7C7B7A" d="M89.291 151.93c-7.23 11.77-14 15.09-14 15.09l-2.03-3.19c-3.99-6.26-.32-14.58 7-15.84 2.46-.42 4.64-.61 6.43-.68-.16 1.07.49 3.42 2.6 4.62z"/>
    <path fill="#FFB69F" d="M130.92 196.968v7.62c-.31 1.41-2.56 7.07-10.69 7.07-5.95 0-9.86-3.38-10.68-7.07v-7.62c6.41 3.07 14.17 3.32 21.37 0z"/>
    <path fill="#F0C020" d="M156.78 224.698H83.63c1.71-12.57 10.82-20.11 20.23-20.11h5.69c.82 3.69 4.73 7.07 10.68 7.07 8.13 0 10.38-5.66 10.69-7.07h5.68c9.67 0 18.67 7.92 20.18 20.11zM96.221 144.78c-.61 1.72-.93 3.57-.93 5.45v1.02a5.107 5.107 0 0 1-6 .68c-2.11-1.2-2.76-3.55-2.6-4.62.128-5.088 6.841-6.903 9.53-2.53z"/>
    <path fill="#7C7B7A" d="M111.86 133.808v10.08c0 8.82-7.16 16.56-16.57 16.56v-10.22c0-1.87.32-3.73.93-5.45 1.89-5.36 6.46-9.44 12.11-10.62a16.42 16.42 0 0 1 3.53-.35z"/>
    <path fill="#F0C020" d="M151.181 151.93c-1.92 1.1-4.37.84-6.01-.68v-1.02c0-1.91-.32-3.74-.92-5.44a5.136 5.136 0 0 1 9.53 2.52c.15 1.07-.49 3.42-2.6 4.62z"/>
    <path fill="#7C7B7A" d="m167.211 163.83-2.04 3.19s-6.76-3.32-13.99-15.09c2.11-1.2 2.75-3.55 2.6-4.62 1.78.07 3.96.26 6.42.68 7.32 1.26 11 9.58 7.01 15.84z"/>
    <path fill="#FEB69F" d="M155.04 172.232a6.561 6.561 0 0 1-6.57 6.57h-3.68c.25-1.42.38-2.89.38-4.37v-8.77h3.3c3.63 0 6.57 2.94 6.57 6.57zM95.68 178.802H92c-3.63 0-6.57-2.94-6.57-6.57a6.566 6.566 0 0 1 6.57-6.57h3.29v8.77c0 1.49.13 2.95.39 4.37z"/>
    <path fill="#7C7B7A" d="M145.17 150.228v10.19c-1.11.07-2.25.1-3.43.08-14.23 0-28.73-6.89-29.88-21.53v-5.16h16.9c.46 0 .92.02 1.37.05 6.55.56 11.98 4.91 14.12 10.93.6 1.7.92 3.53.92 5.44z"/>
    <path d="M49.149 92.107v.02c1.631 4.4 5.9 7.35 10.62 7.35 4.71 0 8.971-2.95 10.61-7.35.468-1.209-.114-2.711-1.46-3.21-1.271-.47-2.75.21-3.22 1.46a6.342 6.342 0 0 1-5.92 4.1h-.019c-2.63 0-5.01-1.64-5.92-4.09-.47-1.26-1.95-1.95-3.22-1.47a2.486 2.486 0 0 0-1.471 3.19zM49.045 76.299v-1.672a2.5 2.5 0 1 0-5 0v1.672a2.5 2.5 0 1 0 5 0zM72.982 78.799a2.5 2.5 0 0 0 2.5-2.5v-1.672a2.5 2.5 0 1 0-5 0v1.672a2.5 2.5 0 0 0 2.5 2.5zM59.763 87.442a2.5 2.5 0 0 0 2.5-2.5V77.31a2.5 2.5 0 1 0-5 0v7.632a2.5 2.5 0 0 0 2.5 2.5zM175.03 93.427v.01c1.619 4.37 5.859 7.3 10.539 7.3 4.671 0 8.9-2.93 10.53-7.3.48-1.29-.17-2.73-1.46-3.21-1.27-.48-2.75.21-3.22 1.46a6.284 6.284 0 0 1-5.86 4.05c-2.59 0-4.939-1.63-5.84-4.04-.47-1.26-1.95-1.94-3.22-1.47a2.49 2.49 0 0 0-1.469 3.2zM174.975 76.102v-1.655a2.5 2.5 0 1 0-5 0v1.655a2.5 2.5 0 1 0 5 0zM198.652 78.602a2.5 2.5 0 0 0 2.5-2.5v-1.655a2.5 2.5 0 1 0-5 0v1.655a2.5 2.5 0 0 0 2.5 2.5zM185.564 86.159a2.5 2.5 0 0 0 2.5-2.5v-7.557a2.5 2.5 0 1 0-5 0v7.557a2.5 2.5 0 0 0 2.5 2.5z"/>
    <circle cx="180.08" cy="39.157" r="2.5"/>
    <path d="M129.732 179.007a2.501 2.501 0 0 0-3.058 1.776c-.693 2.617-3.084 4.445-5.813 4.445-2.73 0-5.121-1.828-5.814-4.445a2.5 2.5 0 1 0-4.834 1.281c1.274 4.808 5.652 8.165 10.648 8.165 4.995 0 9.373-3.357 10.647-8.165a2.5 2.5 0 0 0-1.776-3.057zM111.079 169.279v-1.503a2.5 2.5 0 1 0-5 0v1.503a2.5 2.5 0 1 0 5 0zM133.142 165.275a2.5 2.5 0 0 0-2.5 2.5v1.503a2.5 2.5 0 1 0 5 0v-1.503a2.5 2.5 0 0 0-2.5-2.5zM120.861 178.252a2.5 2.5 0 0 0 2.5-2.5v-8.728a2.5 2.5 0 1 0-5 0v8.728a2.5 2.5 0 0 0 2.5 2.5zM152.3 212.757c1-.94 1.06-2.53.12-3.54-.9-.97-2.561-1.03-3.53-.12a2.49 2.49 0 0 0-.13 3.53 2.504 2.504 0 0 0 3.54.13zM156.769 227.197a2.505 2.505 0 0 0 2.49-2.81c-.24-1.96-.67-3.88-1.28-5.69-.43-1.28-1.87-2.01-3.16-1.58a2.49 2.49 0 0 0-1.579 3.16c.5 1.51.859 3.09 1.06 4.72a2.5 2.5 0 0 0 2.469 2.2zM86.05 113.788a2.48 2.48 0 0 0 .8 3.44c1.151.718 2.694.4 3.44-.8 10.569-16.943 10.56-27.454 10.56-46.53 0-22.404-17.934-40.84-41.06-41.09h-.061c-23.183.25-41.07 18.743-41.05 41.09 0 18.973-.043 29.522 10.561 46.53.699 1.13 2.3 1.51 3.439.8 1.144-.702 1.552-2.251.8-3.44-9.865-15.892-9.8-25.131-9.8-43.89.01-19.99 15.86-35.84 36.08-36.09 20.23.26 36.08 16.11 36.09 36.09 0 18.929-.032 28.167-9.799 43.89z"/>
    <path d="M247.122 140.023c-1.07-6.064-5.386-10.944-11.265-12.737l-32.348-9.71v-9.25c5.864-4.234 10.049-10.435 11.77-17.398h1.25c5.839 0 10.59-4.746 10.59-10.58 0-5.845-4.751-10.6-10.59-10.6h-.341v-8.65l2.801-2.84c7.389-7.462 6.037-19.738-2.45-25.54l-5.101-3.48c-1.502-1.023-3.52-.161-3.859 1.6a7.16 7.16 0 0 1-7.03 5.82h-10.47a2.5 2.5 0 0 0 0 5h10.47c4.52 0 8.63-2.48 10.74-6.47l2.42 1.66c5.942 4.043 6.912 12.65 1.72 17.89l-2.78 2.83h-52.71v-5.64c0-5.61 4.561-10.21 10.16-10.27a2.487 2.487 0 0 0 2.47-2.53 2.499 2.499 0 0 0-2.489-2.47h-.03c-8.224.082-15.088 6.741-15.11 15.26v17.83h-.34c-5.839 0-10.59 4.75-10.59 10.59 0 5.845 4.751 10.6 10.59 10.6h1.266c1.739 6.983 5.921 13.189 11.744 17.397v9.28l-31.819 9.675c-2.639.817-4.86 2.18-6.709 4.03-1.01-.017 3.588-.012-17.222-.012-.81 0-1.553.038-2.704.193a14.908 14.908 0 0 0-4.125-2.565l-26.418-10.834c-1.993-.811-3.332-2.805-3.332-4.964v-4.317c9.505-5.534 15.39-15.458 15.39-26.693v-3.34c0-7.429-5.352-13.905-12.86-15.18l-40.43-6.71a7.336 7.336 0 0 0-8.521 7.22v18.01c0 11.062 5.875 21.179 15.391 26.731v4.279a5.406 5.406 0 0 1-3.34 4.967l-26.423 10.832A15.292 15.292 0 0 0 5 142.904l-.41 30.89a2.502 2.502 0 0 0 2.5 2.533h11.934l2.799 21.58-6.186 26.216a2.501 2.501 0 0 0 4.867 1.148l6.29-26.66c.068-.293.084-.597.046-.896-4.164-32.099-4.341-32.246-4.185-36.861l.406-12.92a2.5 2.5 0 0 0-2.421-2.577c-1.359-.034-2.533 1.04-2.577 2.42l-.406 12.915c-.152 4.526.392 8.089.721 10.636H9.623L10 142.966a10.302 10.302 0 0 1 6.392-9.407l16.909-6.952c1.781 14.956 14.535 21.891 26.476 21.97 11.908-.079 24.66-7.014 26.442-21.967l16.708 6.866a18.876 18.876 0 0 0-7.552 7.213c-4.109-2.159-9.249-.2-10.771 4.244-1.577.125-3.173.32-4.768.592-9.09 1.565-13.621 11.901-8.686 19.646l2.03 3.19a2.5 2.5 0 0 0 3.21.902c.288-.141 6.825-3.453 13.937-14.319.987.202 1.64.205 2.461.1v8.111H92c-5 0-9.07 4.07-9.07 9.07s4.07 9.07 9.07 9.07h1.673a27.464 27.464 0 0 0 13.377 17.197v3.593h-3.2c-5.37 0-10.59 2.14-14.71 6.03-4.35 4.1-7.12 9.72-7.99 16.24-.18 1.36.78 2.63 2.141 2.81 1.214.222 2.618-.672 2.819-2.14 1.71-12.31 10.4-17.93 17.75-17.94h3.91c4.217 9.192 20.24 9.693 24.891 0h3.939c1.66 0 3.311.27 4.91.8 1.29.43 2.74-.3 3.17-1.58.444-1.333-.314-2.738-1.58-3.16-2.109-.7-4.3-1.06-6.5-1.06h-3.18v-3.591a27.556 27.556 0 0 0 13.371-17.2h1.678c4.99 0 9.061-4.07 9.07-9.07 0-4.99-4.07-9.06-9.07-9.07h-.8v-8.111c.819.105 1.477.104 2.474-.1 7.111 10.866 13.637 14.177 13.925 14.319a2.502 2.502 0 0 0 3.209-.897l2.04-3.19.002-.003c4.947-7.763.382-18.085-8.697-19.648a53.6 53.6 0 0 0-4.754-.591c-1.525-4.453-6.681-6.406-10.786-4.24-2.07-3.538-5.252-6.42-9.311-8.039l26.473-8.187c12.876 12.573 33.682 13.031 47.16 0l24.996 7.601a11.213 11.213 0 0 1 7.797 8.818l5.419 31.091h-15.799l-.535-17.021c-.044-1.38-1.208-2.473-2.577-2.42a2.5 2.5 0 0 0-2.421 2.577l2.187 69.662a2.5 2.5 0 0 0 2.498 2.421l.08-.001a2.5 2.5 0 0 0 2.42-2.577l-1.499-47.642h11.578l1.152 47.776a2.5 2.5 0 0 0 2.498 2.44h.062a2.5 2.5 0 0 0 2.438-2.56l-1.149-47.656h2.041a2.501 2.501 0 0 0 2.463-2.929l-5.931-34.024zM33.859 82.127v-18.01a2.318 2.318 0 0 1 2.69-2.29l40.44 6.72c5.029.84 8.68 5.15 8.68 10.24v3.34c0 15.539-12.897 25.96-25.99 25.96-13.906 0-25.82-11.445-25.82-25.96zm25.917 61.451c-10.023-.066-20.772-6.04-21.626-18.947 2.359-.95 1.844-.742 4.652-1.898a10.314 10.314 0 0 0 6.447-9.595v-1.895c6.821 2.51 14.18 2.493 21.03-.05v1.945c0 4.236 2.531 8.002 6.439 9.592 2.601 1.071 2.296.945 4.649 1.898-.85 12.91-11.599 18.884-21.591 18.95zm49.583-7.071v7.38c-.01 6.71-4.979 12.65-11.569 13.84l.001-7.497c0-6.845 5-12.616 11.568-13.723zm-33.315 27.04-.675-1.061c-3.041-4.772-.242-11.075 5.313-12.032a48.197 48.197 0 0 1 3.926-.507c.293.82.825 1.768 1.414 2.465-4.06 6.151-7.83 9.524-9.978 11.135zm13.146-16.174c.055-2.193 2.568-3.3 4.238-2.021-.343 1.259-.61 3.014-.635 4.566a2.64 2.64 0 0 1-3.603-2.545zM92 176.297c-2.24 0-4.061-1.83-4.07-4.07a4.093 4.093 0 0 1 4.07-4.07h.79v6.27c0 .64.02 1.27.06 1.87H92zm20.05 27.969v-3.638c5.047 1.584 10.683 1.704 16.216.012.051-.016.103-.026.154-.041v3.66c-2.284 6.867-14.698 6.219-16.37.007zm17.844-9.576c-.008.003-.017.004-.024.008-6.365 2.938-13.33 2.845-19.24.01a22.445 22.445 0 0 1-12.84-20.28v-11.667c7.133-.951 13.019-5.837 15.407-12.393 5.847 8.645 17.375 12.631 28.501 12.631 1.045.018.583.001.972-.001v11.431c0 8.834-5.159 16.603-12.776 20.261zm18.575-26.522c2.24 0 4.061 1.82 4.07 4.06a4.08 4.08 0 0 1-4.07 4.07h-.86c.04-.61.061-1.24.061-1.87v-6.26h.799zm16.635-5.685-.681 1.064c-2.146-1.613-5.915-4.988-9.97-11.132a8.357 8.357 0 0 0 1.43-2.466c1.289.114 2.592.283 3.894.505 5.568.958 8.361 7.266 5.327 12.029zm-13.822-15.11c.04 1.94-1.87 3.234-3.614 2.545a19.9 19.9 0 0 0-.628-4.565c1.651-1.276 4.186-.188 4.242 2.02zm-8.612 2.855v7.775c-.309.002-.619 0-.93-.005-12.851 0-26.28-5.917-27.38-19.131v-2.559h14.399c7.741 0 13.911 6.299 13.911 13.92zm73.86-75.48c3.082 0 5.59 2.512 5.59 5.6 0 3.077-2.508 5.58-5.59 5.58h-.428c.044-.582.087-1.639.087-2.39v-8.79h.341zm-61.931 11.19c-3.082 0-5.59-2.512-5.59-5.6a5.597 5.597 0 0 1 5.59-5.59h.34v8.79c0 .754.048 1.838.092 2.4h-.432zm5.34-2.4v-20.97h51.25v20.97c0 14.374-11.781 25.639-25.625 25.647-13.991.008-25.625-11.35-25.625-25.647zm7.919 39.227 2.978-.905a2.5 2.5 0 0 0 1.773-2.392v-8.158a30.422 30.422 0 0 0 12.938 2.87c4.444 0 8.888-.962 12.961-2.88v8.168a2.5 2.5 0 0 0 1.82 2.406l3.364.951c-10.523 8.327-25.414 8.316-35.834-.06z"/>
</svg>