<svg xmlns="http://www.w3.org/2000/svg" xmlns:xlink="http://www.w3.org/1999/xlink" viewBox="0 0 512 512" style="enable-background:new 0 0 512 512" xml:space="preserve">
    <path style="fill:#e1902b" d="M512 256.002C512 397.392 397.387 512 255.998 512 114.613 512 0 397.392 0 256.002S114.613 0 255.998 0C397.387 0 512 114.612 512 256.002z"/>
    <defs>
        <path id="a" d="M0 255.996C0 114.607 114.613 0 256.002 0 397.387 0 512 114.607 512 255.996 512 397.389 397.387 512 256.002 512 114.613 512 0 397.389 0 255.996z"/>
    </defs>
    <clipPath id="b">
        <use xlink:href="#a" style="overflow:visible"/>
    </clipPath>
    <g style="clip-path:url(#b)">
        <path style="fill:#f0b39c" d="M192.014 252.512c6.561 15.537 2.988 30.638-7.979 33.729-10.969 3.092-25.174-6.997-31.734-22.532-6.561-15.537-2.988-30.639 7.978-33.73 10.967-3.092 25.176 6.997 31.735 22.533zM325.559 252.512c-6.56 15.537-2.986 30.638 7.98 33.729s25.174-6.997 31.732-22.532c6.562-15.537 2.99-30.639-7.979-33.73-10.964-3.092-25.173 6.997-31.733 22.533z"/>
        <ellipse style="fill:#3d2a3d" cx="258.787" cy="184.904" rx="107.583" ry="98.482"/>
        <path style="fill:#f0b39c" d="m444.389 532.422-.053-.842c0-51.205-19.168-100.816-42.572-110.264l-99.68-40.158c-23.406-9.439-61.737-9.477-85.148-.112L115.83 421.443c-23.425 9.378-42.593 58.933-42.593 110.138l-.052.842h371.204z"/>
        <path style="fill:#f0b39c" d="M300.999 383.622c0 21.981-17.818 39.8-39.799 39.8h-4.826c-21.98 0-39.799-17.818-39.799-39.8V281.107c0-21.98 17.818-39.8 39.799-39.8h4.826c21.98 0 39.799 17.819 39.799 39.8v102.515z"/>
        <path style="fill:#ffdbc5" d="M353.567 258.662c0 54.088-42.414 97.85-94.766 97.85-52.379 0-94.794-43.762-94.794-97.85v-56.403c0-54.004 42.415-97.837 94.794-97.837 52.352 0 94.766 43.833 94.766 97.837v56.403z"/>
        <circle style="fill:#3d2a3d" cx="225.946" cy="261.986" r="9.904"/>
        <circle style="fill:#3d2a3d" cx="291.628" cy="261.986" r="9.904"/>
        <path style="fill:#3d2a3d" d="M258.787 102.246c-55.532 0-100.55 48.792-100.55 108.984 0 19.989 4.969 38.717 13.635 54.824l9.989-84.724 153.834-.007 10.008 84.729c8.664-16.106 13.633-34.833 13.633-54.822 0-60.192-45.017-108.984-100.549-108.984z"/>
        <path style="fill:#3d2a3d" d="M204.969 240.653c7.959-8.755 19.16-12.658 30.818-12.844 5.797-.092 5.807-9.092 0-9-13.912.221-27.672 5.019-37.183 15.479-3.893 4.284 2.453 10.668 6.365 6.365zM318.969 234.289c-9.512-10.461-23.272-15.259-37.182-15.479-5.807-.092-5.799 8.908 0 9 11.656.186 22.857 4.089 30.816 12.844 3.913 4.302 10.261-2.082 6.366-6.365z"/>
        <path style="fill:#fff" d="M279.545 297.877c-11.174 10.52-30.342 10.52-41.518 0-7.879-7.418-19.781 4.44-11.879 11.88 17.939 16.887 47.338 16.887 65.275 0 7.905-7.44-3.997-19.298-11.878-11.88z"/>
        <path style="fill:#f0b39c" d="M272.96 266.079c-.449 7.895-7.047 14.157-15.202 14.157a15.196 15.196 0 0 1-14.576-10.712c-.424 1.452-.732 2.963-.732 4.546 0 9.028 7.327 16.352 16.339 16.352 9.035 0 16.335-7.325 16.335-16.352 0-2.926-.819-5.618-2.164-7.991z"/>
        <path style="fill:#2961a5" d="M444.336 531.58c0-51.205-19.168-100.816-42.572-110.264l-79.255-31.93c-11.019 24.201-35.397 41.035-63.722 41.035-28.194 0-52.479-16.678-63.57-40.698l-79.387 31.719c-23.425 9.378-42.593 58.933-42.593 110.138l-.052.842h371.204l-.053-.842z"/>
        <path style="fill:#3d2a3d" d="M360.217 54.024c-20.046-2.09-43.658 7.317-62.044 14.099-10.031 3.698-30.231 14.646-33.88 25.554-5.296 15.847 26.258 1.16 30.853-.337 20.014-6.531 41.573 1.606 57.444 14.902 17.197 14.402 24.054 32.266 24.534 54.674 20.105-6.546 37.518-23.709 39.932-46.371 3.299-30.917-22.143-58.908-56.839-62.521z"/>
        <path style="fill:#db4646" d="M305.382 87.568c2.565 3.085 1.91 8.052-1.438 11.076l-8.826 7.957c-3.362 3.023-8.152 2.969-10.711-.122l-18.12-21.909c-2.564-3.087-1.92-8.045 1.433-11.072l8.822-7.966c3.369-3.021 8.155-2.966 10.719.13l18.121 21.906z"/>
        <g>
            <path style="fill:#704d70" d="M318.301 146.077H199.268c-18.239 0-33.011 15.555-33.011 34.73v6.543c0 19.179 14.772 34.732 33.011 34.732h4.066l16.898-29.618 6.297 29.618 78.07-.055 7.829-36.756 19.249 33.782c11.555-5.407 19.64-17.545 19.64-31.702v-6.543c0-19.176-14.785-34.731-33.016-34.731z"/>
        </g>
    </g>
</svg>