<svg xmlns="http://www.w3.org/2000/svg" viewBox="0 0 64 64">
    <defs>
        <style>.cls-4{fill:#f04b4d}</style>
    </defs>
    <g id="hot_money" data-name="hot money">
        <path d="M56.06 29.15A3.72 3.72 0 0 0 55 29H41.8a10.92 10.92 0 0 1-3.48 4H51a4 4 0 0 0 4 4v14a4 4 0 0 0-4 4H13a4 4 0 0 0-4-4V37a4 4 0 0 0 4-4h12.68a10.92 10.92 0 0 1-3.48-4H9a4 4 0 0 0-4 4v22a4 4 0 0 0 2.94 3.85A3.72 3.72 0 0 0 9 59h46a4 4 0 0 0 4-4V33a4 4 0 0 0-2.94-3.85z" style="fill:#0e9347"/>
        <path d="M55 37v14a4 4 0 0 0-4 4H13a4 4 0 0 0-4-4V37a4 4 0 0 0 4-4h12.68a11 11 0 0 0 12.64 0H51a4 4 0 0 0 4 4z" style="fill:#3bb54a"/>
        <ellipse cx="32" cy="44" rx="6" ry="7" style="fill:#89c763"/>
        <path class="cls-4" d="M43 24a11 11 0 1 1-22 0c0-11 9-14 11-19 2 4-2 10 0 12a8.94 8.94 0 0 1 5-6c-1 4 6 5 6 13z"/>
        <path class="cls-4" d="M43 24a11 11 0 1 1-22 0c0-11 9-14 11-19 2 4-2 10 0 12a8.94 8.94 0 0 1 5-6c-1 4 6 5 6 13z"/>
        <path d="M32 35a5.36 5.36 0 0 1-3.44-1.27c-6.08-5 .15-12.61.44-15.73.14 1.22 1 5.3 3 7 0-.65.65-4.89 3-5-1 1 6.09 8.09.46 13.71A4.74 4.74 0 0 1 32 35z" style="fill:#f19920"/>
        <path d="M31.92 35a3.5 3.5 0 0 1-2.22-.82C25.77 31 29.8 26 30 24c.09.79.65 3.43 1.94 4.53 0-.42.42-3.17 1.94-3.24-.64.65 3.94 5.24.3 8.88a3.09 3.09 0 0 1-2.26.83z" style="fill:#f6b545"/>
    </g>
</svg>