<svg xmlns="http://www.w3.org/2000/svg" viewBox="0 0 2048 2048" style="enable-background:new 0 0 2048 2048" xml:space="preserve">
    <style></style>
    <g id="Layer_16">
        <linearGradient id="SVGID_1_" gradientUnits="userSpaceOnUse" x1="280.28" y1="1024" x2="1767.72" y2="1024">
            <stop offset="0" style="stop-color:#fedc52"/>
            <stop offset=".995" style="stop-color:#fcb117"/>
        </linearGradient>
        <circle cx="1024" cy="1024" r="743.72" style="fill:url(#SVGID_1_)"/>
        <g>
            <path d="M1025.84 1455.93c-86.13 0-170.06-23.07-242.72-66.71-71.45-42.91-129.29-103.93-167.27-176.47-5.12-9.79-1.34-21.87 8.44-27 9.79-5.12 21.87-1.34 27 8.44 71.61 136.77 215.13 221.73 374.55 221.73 158.56 0 300.64-84.91 370.8-221.58 5.04-9.83 17.1-13.7 26.93-8.66 9.83 5.04 13.7 17.1 8.66 26.93-77.05 150.09-232.76 243.32-406.39 243.32z" style="fill:#542a1a"/>
        </g>
        <g>
            <linearGradient id="SVGID_2_" gradientUnits="userSpaceOnUse" x1="623.676" y1="2257.503" x2="1013.827" y2="2257.503" gradientTransform="rotate(-14.366 -4904.644 1956.665)">
                <stop offset=".004" style="stop-color:#e42326"/>
                <stop offset="1" style="stop-color:#ea3d3d"/>
            </linearGradient>
            <path style="fill-rule:evenodd;clip-rule:evenodd;fill:url(#SVGID_2_)" d="M765.87 635.87c-41.99 10.76-72.8 47.73-78.35 87.19-23.84-31.93-68.63-49.54-110.62-38.79-52.49 13.45-84.27 64.1-70.28 118.69 18.82 73.49 113.67 111.84 250.82 193.06 81.22-137.15 145.94-216.38 127.12-289.86-13.99-54.59-66.2-83.73-118.69-70.29z"/>
            <linearGradient id="SVGID_3_" gradientUnits="userSpaceOnUse" x1="-10784.003" y1="-664.191" x2="-10393.85" y2="-664.191" gradientTransform="scale(-1 1) rotate(-14.366 -40.737 -36638.304)">
                <stop offset=".004" style="stop-color:#e42326"/>
                <stop offset="1" style="stop-color:#ea3d3d"/>
            </linearGradient>
            <path style="fill-rule:evenodd;clip-rule:evenodd;fill:url(#SVGID_3_)" d="M1282.13 635.87c-52.49-13.44-104.7 15.69-118.69 70.28-18.82 73.49 45.91 152.72 127.12 289.86 137.15-81.22 231.99-119.57 250.82-193.06 13.98-54.59-17.79-105.24-70.28-118.69-41.99-10.76-86.78 6.86-110.62 38.79-5.56-39.44-36.36-76.42-78.35-87.18z"/>
        </g>
    </g>
</svg>