<svg xmlns="http://www.w3.org/2000/svg" width="512" height="512" xml:space="preserve">
    <path fill="#FFB561" d="m344.684 228.914-53.189-64.897 28.081 64.897z"/>
    <path fill="#FF9B29" d="m319.576 228.914 74.424 172h91.655l-140.971-172z"/>
    <path fill="#FFB561" d="m394 400.914-74.424-172h-68.659L137 400.914z"/>
    <path fill="#FFD161" d="m291.495 164.402-40.578 64.897h68.659zM265 255.299h35v11h-35zM216 287.299h35v11h-35zM283 310.299h35v11h-35zM216 344.299h35v11h-35zM322 370.299h35v11h-35z"/>
    <path fill="#FFB561" d="M406 354.914h35v11h-35zM359 297.914h35v11h-35zM348 272.914h19v11h-19z"/>
    <g>
        <path fill="#4FB463" d="m458.069 279.98-4.49 3.98 2.653 2.994c6.338-5.617 5.259-15.928-1.64-23.712-6.899-7.784-17.005-10.095-23.343-4.478l3.095 3.493 4.49-3.98 3.316 3.742-4.49 3.98 1.99 2.245 4.49-3.98 3.316 3.742-4.49 3.98 1.99 2.245 4.49-3.98 3.316 3.742-4.49 3.98 1.99 2.245 4.49-3.98 3.317 3.742z"/>
        <path fill="#4FB463" d="m452.802 281.329 1.588 5.786 3.857-1.059c-2.242-8.167-11.969-11.751-22-8.998-10.03 2.753-16.565 10.801-14.324 18.968l4.5-1.235-1.588-5.786 4.822-1.323 1.588 5.786 2.893-.794-1.588-5.786 4.822-1.323 1.588 5.786 2.893-.794-1.588-5.786 4.822-1.323 1.588 5.786 2.893-.794-1.588-5.786 4.822-1.325z"/>
        <path fill="#4FB463" d="m457.842 279.98 4.49 3.98-2.653 2.994c-6.338-5.617-5.259-15.928 1.64-23.712 6.899-7.784 17.005-10.095 23.343-4.478l-3.095 3.493-4.49-3.98-3.316 3.742 4.49 3.98-1.99 2.245-4.49-3.98-3.316 3.742 4.49 3.98-1.99 2.245-4.49-3.98-3.316 3.742 4.49 3.98-1.99 2.245-4.49-3.98-3.317 3.742z"/>
        <path fill="#4FB463" d="m463.109 281.329-1.588 5.786-3.857-1.059c2.242-8.167 11.969-11.751 22-8.998 10.03 2.753 16.565 10.801 14.324 18.968l-4.5-1.235 1.588-5.786-4.822-1.323-1.588 5.786-2.893-.794 1.588-5.786-4.822-1.323-1.588 5.786-2.893-.794 1.588-5.786-4.822-1.323-1.588 5.786-2.893-.794 1.588-5.786-4.822-1.325z"/>
        <path fill="#B56D3B" d="M461.75 343.914h-7.833l-3.917-7h15.667z"/>
        <path fill="#8A532D" d="M461.75 336.914h-7.833l-3.917-8h15.667z"/>
        <path fill="#B56D3B" d="M461.75 328.914h-7.833l-3.917-7h15.667z"/>
        <path fill="#8A532D" d="M461.75 321.914h-7.833l-3.917-7h15.667z"/>
        <path fill="#B56D3B" d="M461.75 314.914h-7.833l-3.917-7h15.667z"/>
        <path fill="#8A532D" d="M461.75 307.914h-7.833l-3.917-8h15.667z"/>
        <path fill="#B56D3B" d="M461.75 299.914h-7.833l-3.917-7h15.667z"/>
        <path fill="#8A532D" d="M461.75 292.914h-7.833l-3.917-7h15.667z"/>
        <path fill="#B56D3B" d="M461.75 401.914h-7.833l-3.917-7h15.667z"/>
        <path fill="#8A532D" d="M461.75 394.914h-7.833l-3.917-8h15.667z"/>
        <path fill="#B56D3B" d="M461.75 386.914h-7.833l-3.917-7h15.667z"/>
        <path fill="#8A532D" d="M461.75 379.914h-7.833l-3.917-7h15.667z"/>
        <path fill="#B56D3B" d="M461.75 372.914h-7.833l-3.917-7h15.667z"/>
        <path fill="#8A532D" d="M461.75 365.914h-7.833l-3.917-8h15.667z"/>
        <path fill="#B56D3B" d="M461.75 357.914h-7.833l-3.917-7h15.667z"/>
        <path fill="#8A532D" d="M461.75 350.914h-7.833l-3.917-7h15.667z"/>
    </g>
    <g>
        <path fill="#FFB561" d="m189.032 310.914-34.583-34.105 18.258 34.105z"/>
        <path fill="#FF9B29" d="m172.707 310.914 48.389 90h59.592l-91.656-90z"/>
        <path fill="#FFB561" d="m221.096 400.914-48.389-90h-44.64l-74.067 90z"/>
        <path fill="#FFD161" d="m154.449 276.805-26.382 34.105h44.64zM137.223 324.573h22.756v5.781h-22.756zM105.364 341.39h22.756v5.781h-22.756zM148.926 353.477h22.756v5.781h-22.756zM105.364 371.345h22.756v5.781h-22.756zM174.283 385.008h22.756v5.781h-22.756z"/>
        <path fill="#FFB561" d="M229 376.914h23v6h-23zM198 346.914h23v5h-23zM191 333.914h13v5h-13z"/>
    </g>
    <g>
        <path fill="#4FB463" d="m74.359 315.675-3.176 2.815 1.876 2.117c4.483-3.973 3.72-11.265-1.16-16.77-4.879-5.505-12.027-7.139-16.51-3.167l2.189 2.47 3.176-2.815 2.345 2.647-3.176 2.815 1.407 1.588 3.176-2.815 2.345 2.647-3.176 2.815 1.407 1.588 3.176-2.815 2.345 2.647-3.176 2.815 1.407 1.588 3.176-2.815 2.349 2.645z"/>
        <path fill="#4FB463" d="m70.633 316.629 1.123 4.092 2.728-.749c-1.585-5.776-8.465-8.311-15.559-6.364-7.094 1.947-11.716 7.639-10.131 13.415l3.183-.874-1.123-4.092 3.41-.936 1.123 4.092 2.046-.562-1.123-4.092 3.41-.936 1.123 4.092 2.046-.562-1.123-4.092 3.41-.936 1.123 4.092 2.046-.562-1.123-4.092 3.411-.934z"/>
        <path fill="#4FB463" d="m74.198 315.675 3.176 2.815-1.876 2.117c-4.483-3.973-3.72-11.265 1.16-16.77s12.027-7.139 16.51-3.167l-2.189 2.47-3.176-2.815-2.345 2.647 3.176 2.815-1.407 1.588-3.176-2.815-2.345 2.647 3.176 2.815-1.407 1.588-3.176-2.815-2.345 2.647 3.176 2.815-1.407 1.588-3.176-2.815-2.349 2.645z"/>
        <path fill="#4FB463" d="m77.923 316.629-1.123 4.092-2.728-.749c1.585-5.776 8.465-8.311 15.559-6.364 7.094 1.947 11.716 7.639 10.131 13.415l-3.183-.874 1.123-4.092-3.41-.936-1.123 4.092-2.046-.562 1.123-4.092-3.41-.936-1.123 4.092-2.046-.562 1.123-4.092-3.41-.936-1.123 4.092-2.046-.562 1.123-4.092-3.411-.934z"/>
        <path fill="#B56D3B" d="M76.962 360.914h-5.54l-2.77-5h11.08z"/>
        <path fill="#8A532D" d="M76.962 355.914h-5.54l-2.77-6h11.08z"/>
        <path fill="#B56D3B" d="M76.962 349.914h-5.54l-2.77-5h11.08z"/>
        <path fill="#8A532D" d="M76.962 344.914h-5.54l-2.77-5h11.08z"/>
        <path fill="#B56D3B" d="M76.962 339.914h-5.54l-2.77-4h11.08z"/>
        <path fill="#8A532D" d="M76.962 335.914h-5.54l-2.77-6h11.08z"/>
        <path fill="#B56D3B" d="M76.962 329.914h-5.54l-2.77-5h11.08z"/>
        <path fill="#8A532D" d="M76.962 324.914h-5.54l-2.77-5h11.08z"/>
        <path fill="#B56D3B" d="M76.962 401.914h-5.54l-2.77-5h11.08z"/>
        <path fill="#8A532D" d="M76.962 396.914h-5.54l-2.77-6h11.08z"/>
        <path fill="#B56D3B" d="M76.962 390.914h-5.54l-2.77-5h11.08z"/>
        <path fill="#8A532D" d="M76.962 385.914h-5.54l-2.77-5h11.08z"/>
        <path fill="#B56D3B" d="M76.962 380.914h-5.54l-2.77-4h11.08z"/>
        <path fill="#8A532D" d="M76.962 376.914h-5.54l-2.77-6h11.08z"/>
        <path fill="#B56D3B" d="M76.962 370.914h-5.54l-2.77-5h11.08z"/>
        <path fill="#8A532D" d="M76.962 365.914h-5.54l-2.77-5h11.08z"/>
    </g>
    <circle fill="#FFD161" cx="117.051" cy="163.935" r="68.234"/>
    <path fill="#FFD161" d="M10 401.299h492v15H10z"/>
</svg>