<svg xmlns="http://www.w3.org/2000/svg" viewBox="0 0 2048 2048" style="enable-background:new 0 0 2048 2048" xml:space="preserve">
    <style>.st20{fill:#542a19}.st96{fill:#d1d3d4}</style>
    <g id="Layer_26">
        <linearGradient id="SVGID_1_" gradientUnits="userSpaceOnUse" x1="280.28" y1="1016.955" x2="1767.72" y2="1016.955">
            <stop offset="0" style="stop-color:#fedc52"/>
            <stop offset=".995" style="stop-color:#fcb117"/>
        </linearGradient>
        <path d="M1767.72 1024c0 355.79-249.83 653.22-583.63 726.45-51.56 11.31-99.61-62.13-154.57-62.13-51.13 0-106.57 74.24-154.8 64.41-339.2-69.11-594.44-369.12-594.44-728.73 0-410.75 332.97-743.72 743.72-743.72s743.72 332.97 743.72 743.72z" style="fill:url(#SVGID_1_)"/>
        <g style="opacity:.81">
            <path d="M540.23 770.15c-2.07 0-4.16-.21-6.27-.66-16.21-3.44-26.55-19.38-23.11-35.58 21.98-103.42 83.1-188.9 176.75-247.22 76.68-47.75 173.13-74.9 264.59-74.41 16.57.08 29.93 13.58 29.85 30.15-.08 16.52-13.5 29.85-30 29.85h-1.93c-130.25 0-337.77 72.7-380.58 274.11-2.98 14.1-15.44 23.76-29.3 23.76z" style="fill:#fff"/>
        </g>
        <g>
            <path class="st20" d="M678.88 888.49c-8.96 0-17.11-6.06-19.39-15.15-2.68-10.71 3.83-21.58 14.54-24.26l110.95-27.78-114.56-50.07c-10.12-4.42-14.74-16.21-10.32-26.34s16.21-14.74 26.34-10.32l168.29 73.55a20.004 20.004 0 0 1-3.15 37.73l-167.83 42.02c-1.63.42-3.26.62-4.87.62zM1369.58 885.73c-1.56 0-3.14-.18-4.72-.57l-168.16-40.67a19.986 19.986 0 0 1-15.21-17.61c-.78-8.52 3.95-16.6 11.76-20.09l167.7-74.9c10.09-4.5 21.91.02 26.42 10.1 4.5 10.08-.02 21.91-10.1 26.42l-114.16 50.99 111.16 26.89c10.74 2.6 17.33 13.41 14.74 24.14-2.22 9.15-10.41 15.3-19.43 15.3z"/>
        </g>
        <g>
            <path d="m968.81 986.4-536.45 669c-37.13 46.31-4.17 115 55.19 115h6.22a70.77 70.77 0 0 0 36.7-10.26l40.48-24.56a143.236 143.236 0 0 1 114.58-15.01l148.15 43.38a70.76 70.76 0 0 0 43.71-1.28l115.14-41.19c27.18-9.72 56.96-9.29 83.84 1.22l99.23 38.8a70.698 70.698 0 0 0 46.23 1.83l142.36-43.04a143.243 143.243 0 0 1 113.03 13.03l47.89 27.62a70.75 70.75 0 0 0 35.35 9.46c59.36 0 92.33-68.69 55.19-115l-536.45-669c-28.33-35.32-82.07-35.32-110.39 0z" style="fill:#e6e7e8"/>
            <path class="st96" d="M614.58 1718.12c23.24-5.09 47.63-4.39 70.94 2.44l148.15 43.38a70.843 70.843 0 0 0 22.42 2.8l49.06-508.51-290.57 459.89zM1142.86 1258.22l55.08 508.03c8.02.39 16.09-.58 23.88-2.93l142.36-43.04c22.38-6.77 45.83-7.88 68.34-3.58l-289.66-458.48z"/>
        </g>
    </g>
</svg>