<svg xmlns="http://www.w3.org/2000/svg" width="512" height="512" xml:space="preserve">
    <g>
        <path fill="#E3E3E3" d="M340 44.071 88.444 295.459l251.556.497zM349 38.937v249h97z"/>
        <path fill="#BABABA" d="m345 44.071-82.456 251.732 82.456.134 4-8h48z"/>
        <path fill="none" stroke="#E3E3E3" stroke-width="10" stroke-linecap="round" stroke-linejoin="round" stroke-miterlimit="10" d="M212 309.937H54l12 58.313"/>
        <g fill="none" stroke="#E3E3E3" stroke-width="10" stroke-linecap="round" stroke-linejoin="round" stroke-miterlimit="10">
            <path d="M86 366.937v-57M128 366.937v-57M170 366.937v-57M212 366.937v-57"/>
        </g>
        <path fill="#2D415A" d="M344 383.937a5 5 0 0 1-5-5v-340c0-2.762 2.238-5 5-5s5 2.238 5 5v340a5 5 0 0 1-5 5z"/>
        <path fill="#FF6650" d="m224.244 378.08 40.582-55.161c5.464-7.428 13.074-11.637 21.035-11.637h105.442c15.857 0 28.757 16.378 28.923 36.72l.497 61.098c.172 21.104-13.393 38.142-29.836 37.476l-146.52-5.937c-24.923-1.011-37.237-39.296-20.123-62.559z"/>
        <circle fill="#2D415A" cx="289.5" cy="333.437" r="13.5"/>
        <path fill="#6FEBE7" d="M289.5 341.937c-4.687 0-8.5-3.813-8.5-8.5s3.813-8.5 8.5-8.5 8.5 3.813 8.5 8.5-3.813 8.5-8.5 8.5z"/>
        <circle fill="#2D415A" cx="336.5" cy="333.437" r="13.5"/>
        <path fill="#6FEBE7" d="M336.5 341.937c-4.687 0-8.5-3.813-8.5-8.5s3.813-8.5 8.5-8.5 8.5 3.813 8.5 8.5-3.813 8.5-8.5 8.5z"/>
        <circle fill="#2D415A" cx="383.5" cy="333.437" r="13.5"/>
        <path fill="#6FEBE7" d="M383.5 341.937c-4.687 0-8.5-3.813-8.5-8.5s3.813-8.5 8.5-8.5 8.5 3.813 8.5 8.5-3.813 8.5-8.5 8.5z"/>
        <path fill="#2D415A" d="M456.941 370.674c3.835-9.13-3.225-19.086-13.558-19.095l-375.212-.354c-11.561-.01-18.558 12.194-12.32 21.456l19.676 29.257h368.302l13.112-31.264zM123.411 472.937h290.518c.12 0 .239-.558.345-.81l12.652-30.19H102.628l20.783 31z"/>
        <path fill="#E3E3E3" d="m90.76 424.937 5.707 8h334.302l3.559-8z"/>
        <path fill="#FF6650" d="M443.829 401.837H75.527l15.233 22.617h343.568z"/>
        <path fill="#2FB49F" d="M102.628 442.073h324.298l3.843-9.146H96.467z"/>
        <path fill="#182330" d="M124.491 474.537c2.688 3.99 7.325 6.4 12.306 6.4h263.905c5.693 0 10.833-3 13.227-8H123.411l1.08 1.6z"/>
        <g>
            <path fill="#182330" d="M420.724 392.937H98.444a2.001 2.001 0 0 1-1.561-.749l-22.444-28A2 2 0 0 1 76 360.937h362a2 2 0 0 1 1.702 3.049l-17.276 28a1.998 1.998 0 0 1-1.702.951zm-321.32-4h320.203l14.809-24H80.166l19.238 24z"/>
        </g>
        <g>
            <path fill="#2D415A" d="M340 300.937H88c-2.762 0-5-2.238-5-5s2.238-5 5-5h252c2.762 0 5 2.238 5 5s-2.238 5-5 5z"/>
        </g>
        <g>
            <path fill="#2D415A" d="M446 292.937h-97c-2.762 0-5-2.238-5-5s2.238-5 5-5h97c2.762 0 5 2.238 5 5s-2.238 5-5 5z"/>
        </g>
        <path fill="#FF6650" d="M344 33.937v-22l48 11z"/>
    </g>
</svg>